<?xml version="1.0" encoding="utf-8"?>
<!-- Generator: Adobe Illustrator 19.2.1, SVG Export Plug-In . SVG Version: 6.00 Build 0)  -->
<svg version="1.1" id="Layer_1" xmlns="http://www.w3.org/2000/svg" xmlns:xlink="http://www.w3.org/1999/xlink" x="0px" y="0px"
	 viewBox="7.6 488 667 668.9" style="enable-background:new 7.6 488 667 668.9;" xml:space="preserve">
<style type="text/css">
	.st0{fill="#0c0c0c";}
</style>
<path class="st0" d="M192.6,608.9c13.3,13.3,25.7,25.7,39.1,39.1c22.9,22.9,22.9,49.5,0,72.4c-16.2,16.2-32.4,32.4-48.6,48.6
	c-4.8,3.8-4.8,7.6-2.9,13.3c10.5,25.7,26.7,49.5,44.8,71.4c35.2,43.8,76.2,82.9,123.8,112.4c10.5,6.7,21.9,11.4,32.4,17.1
	c5.7,2.9,9.5,1.9,13.3-2.9c16.2-17.1,32.4-33.3,49.5-49.5c21.9-21.9,48.6-21.9,70.5,0c26.7,26.7,53.3,53.3,80,79.1
	c21.9,21.9,21.9,49.5,0,72.4c-15.2,15.2-31.4,29.5-44.8,45.7c-21,22.9-46.7,30.5-76.2,28.6c-42.9-1.9-82.9-17.1-121.9-35.2
	c-85.7-41.9-158.1-99.1-219.1-171.4C87.9,896.6,49.8,837.5,26,771.8C14.5,739.4,6,707,7.9,672.7c1.9-21,9.5-39.1,25.7-54.3
	c17.1-16.2,33.3-33.3,49.5-49.5c21.9-21,48.6-21,70.5,0C166,582.3,179.3,595.6,192.6,608.9z M539.3,811.8
	c-7.6-46.7-30.5-89.5-63.8-123.8c-35.2-35.2-81-58.1-130.5-65.7l-7.6,51.4c39.1,5.7,73.3,22.9,101,50.5
	c26.7,26.7,43.8,59.1,49.5,96.2L539.3,811.8z M674.6,802.3c-13.3-78.1-50.5-149.5-106.7-205.7c-59.1-59.1-134.3-97.1-217.2-108.6
	l-7.6,51.4c71.4,10.5,136.2,41.9,187.6,93.3c48.6,48.6,80,109.5,92.4,177.2L674.6,802.3z"/>
</svg>