<?xml version="1.0" encoding="utf-8"?>
<!-- Generator: Adobe Illustrator 19.2.1, SVG Export Plug-In . SVG Version: 6.00 Build 0)  -->
<svg version="1.1" id="Слой_1" xmlns="http://www.w3.org/2000/svg" xmlns:xlink="http://www.w3.org/1999/xlink" x="0px" y="0px"
	 viewBox="97.9 50.2 416.2 538.6" style="enable-background:new 97.9 50.2 416.2 538.6;" xml:space="preserve">
<style type="text/css">
	.st0{fill:#FDB813;}
</style>
<g>
	<g>
		<path class="st0" d="M159.1,344h293.8c6.7,0,12.2-5.5,12.2-12.2V184.9c0-6.7-5.5-12.2-12.2-12.2H159.1c-6.7,0-12.2,5.5-12.2,12.2
			v146.9C146.9,338.5,152.4,344,159.1,344z M171.4,197.1h122.4v85.7c0,6.7,5.5,12.2,12.2,12.2c6.7,0,12.2-5.5,12.2-12.2v-85.7h122.4
			v122.4H171.4V197.1z"/>
		<path class="st0" d="M171.4,429.7c13.5,0,24.5-11,24.5-24.5c0-13.5-11-24.5-24.5-24.5c-13.5,0-24.5,11-24.5,24.5
			C146.9,418.6,157.9,429.7,171.4,429.7z"/>
		<path class="st0" d="M440.6,380.7c-13.5,0-24.5,11-24.5,24.5c0,13.5,11,24.5,24.5,24.5c13.5,0,24.5-11,24.5-24.5
			C465.1,391.7,454.1,380.7,440.6,380.7z"/>
		<path class="st0" d="M306,135.9c13.5,0,24.5-11,24.5-24.5c0-13.5-11-24.5-24.5-24.5s-24.5,11-24.5,24.5
			C281.5,124.9,292.5,135.9,306,135.9z"/>
		<path class="st0" d="M477.4,99.2h-61.2c-6.7,0-12.2-5.5-12.2-12.2c0-20.2-16.5-36.7-36.7-36.7H244.8c-20.2,0-36.7,16.5-36.7,36.7
			c0,6.7-5.5,12.2-12.2,12.2h-61.2c-20.2,0-36.7,16.5-36.7,36.7v24.5v318.2c0,6.7,5.5,12.2,12.2,12.2h73.4l-58.8,78.3
			c-4.3,5.5-3.1,12.9,2.4,17.1c2.4,1.8,4.9,2.4,7.3,2.4c3.7,0,7.3-1.8,9.8-4.9l14.7-19.6l0,0h232.6c6.7,0,12.2-5.5,12.2-12.2
			c0-6.7-5.5-12.2-12.2-12.2H177.5l36.7-49h183.6l69.8,93c2.4,3.1,6.1,4.9,9.8,4.9c2.4,0,4.9-0.6,7.3-2.4c5.5-4.3,6.7-11.6,2.4-17.1
			l-58.8-78.3h73.4c6.7,0,12.2-5.5,12.2-12.2V160.4v-24.5C514.1,115.7,497.6,99.2,477.4,99.2z M122.4,135.9
			c0-6.7,5.5-12.2,12.2-12.2h61.2c20.2,0,36.7-16.5,36.7-36.7c0-6.7,5.5-12.2,12.2-12.2h122.4c6.7,0,12.2,5.5,12.2,12.2
			c0,20.2,16.5,36.7,36.7,36.7h61.2c6.7,0,12.2,5.5,12.2,12.2v24.5v306H122.4v-306V135.9z"/>
	</g>
</g>
</svg>
