<?xml version="1.0" encoding="utf-8"?>
<!-- Generator: Adobe Illustrator 19.2.1, SVG Export Plug-In . SVG Version: 6.00 Build 0)  -->
<svg version="1.1" id="Слой_1" xmlns="http://www.w3.org/2000/svg" xmlns:xlink="http://www.w3.org/1999/xlink" x="0px" y="0px"
	 viewBox="0 102.8 612 433.5" style="enable-background:new 0 102.8 612 433.5;" xml:space="preserve">
<style type="text/css">
	.st0{fill:#FDB813;}
</style>
<g>
	<g>
		<g>
			<g>
				<path class="st0" d="M114.8,536.3c-35.2,0-63.8-28.6-63.8-63.8s28.6-63.8,63.8-63.8c35.2,0,63.8,28.6,63.8,63.8
					S149.9,536.3,114.8,536.3z M114.8,434.3c-21.1,0-38.3,17.2-38.3,38.3s17.2,38.3,38.3,38.3c21.1,0,38.3-17.2,38.3-38.3
					S135.8,434.3,114.8,434.3z"/>
			</g>
			<g>
				<path class="st0" d="M497.3,536.3c-35.2,0-63.8-28.6-63.8-63.8s28.6-63.8,63.8-63.8c35.2,0,63.8,28.6,63.8,63.8
					S532.4,536.3,497.3,536.3z M497.3,434.3c-21.1,0-38.3,17.2-38.3,38.3s17.2,38.3,38.3,38.3c21.1,0,38.3-17.2,38.3-38.3
					S518.3,434.3,497.3,434.3z"/>
			</g>
			<g>
				<path class="st0" d="M446.3,357.8h-25.5c-7,0-12.8-5.7-12.8-12.8c0-7,5.7-12.8,12.8-12.8h25.5c7,0,12.8,5.7,12.8,12.8
					C459,352,453.3,357.8,446.3,357.8z"/>
			</g>
			<g>
				<path class="st0" d="M216.8,485.3c-3.3,0-6.6-1.3-9-3.8c-2.5-2.3-3.8-5.6-3.8-8.9s1.3-6.6,3.8-8.9c4.6-4.8,13.3-4.8,17.9,0
					c2.6,2.3,3.9,5.6,3.9,8.9s-1.3,6.6-3.8,8.9C223.4,484,220.1,485.3,216.8,485.3z"/>
			</g>
			<g>
				<path class="st0" d="M446.3,485.3H165.8c-7,0-12.8-5.7-12.8-12.8c0-7,5.7-12.8,12.8-12.8h280.5c7,0,12.8,5.7,12.8,12.8
					C459,479.5,453.3,485.3,446.3,485.3z"/>
			</g>
			<g>
				<path class="st0" d="M522.8,306.8h-102c-7,0-12.8-5.7-12.8-12.8V192c0-7,5.7-12.8,12.8-12.8c7,0,12.8,5.7,12.8,12.8v89.3h89.3
					c7,0,12.8,5.7,12.8,12.8C535.5,301,529.8,306.8,522.8,306.8z"/>
			</g>
			<g>
				<path class="st0" d="M548.3,485.3c-7,0-12.8-5.7-12.8-12.8c0-7,5.7-12.8,12.8-12.8c21.1,0,38.3-17.2,38.3-38.3V314.6l-18.5-9.2
					c-4.3-2.2-7-6.6-7-11.4V192c0-4.8,2.7-9.2,7-11.4l18.5-9.2v-24.6c-10.4-8.1-30.4-18.5-38.3-18.5H331.5v242.3
					c0,7-5.7,12.8-12.8,12.8H48.2l-19.1,76.5h34.7c7,0,12.8,5.7,12.8,12.8c0,7-5.7,12.8-12.8,12.8h-51c-3.9,0-7.7-1.8-10.1-4.9
					c-2.4-3.1-3.3-7.1-2.3-10.9l25.5-102c1.4-5.7,6.6-9.7,12.4-9.7H306V115.5c0-7,5.7-12.8,12.8-12.8h229.5c18.8,0,50,19.2,60,29.2
					c2.4,2.4,3.7,5.6,3.7,9v38.3c0,4.8-2.7,9.2-7,11.4l-18.5,9.2v86.2l18.5,9.2c4.3,2.2,7,6.6,7,11.4v114.8
					C612,456.6,583.4,485.3,548.3,485.3z"/>
			</g>
		</g>
	</g>
	<g>
		<path class="st0" d="M191.3,383.3c-5.5,0-10.6-3.6-12.2-9.1l-76.5-255c-1.1-3.9-0.4-8.1,2-11.3c2.4-3.2,6.2-5.2,10.2-5.2H163
			c22.1,0,42.3,11.2,54.1,29.9l113.2,232.2c3.1,6.3,0.5,13.9-5.9,17c-6.2,3-14,0.5-17-5.9L194.8,145c-6.4-10-18.6-16.8-31.8-16.8
			h-31.1l71.6,238.6c2,6.7-1.8,13.8-8.5,15.9C193.7,383.1,192.5,383.3,191.3,383.3z"/>
	</g>
	<g>
		<path class="st0" d="M89.3,281.3C68.2,281.3,51,264.1,51,243c0-7,5.7-12.8,12.8-12.8S76.5,236,76.5,243c0,7,5.7,12.8,12.8,12.8
			S102,250,102,243V115.5c0-7,5.7-12.8,12.8-12.8c7,0,12.8,5.7,12.8,12.8V243C127.5,264.1,110.3,281.3,89.3,281.3z"/>
	</g>
</g>
</svg>
