<?xml version="1.0" encoding="utf-8"?>
<!-- Generator: Adobe Illustrator 19.2.1, SVG Export Plug-In . SVG Version: 6.00 Build 0)  -->
<svg version="1.1" id="Layer_1" xmlns="http://www.w3.org/2000/svg" xmlns:xlink="http://www.w3.org/1999/xlink" x="0px" y="0px"
	 viewBox="0 0 1010.6 735.1" style="enable-background:new 0 0 1010.6 735.1;" xml:space="preserve">
<path fill="#FDB813" d="M450,423.7c-6.3-1.2-12.6-2.1-19.1-2.6l0,0l0,0c0,0.2,0,0.4,0,0.6c0,0.1,0,0.2,0,0.3c0,0,0,0.1,0,0.2c0,0.4-0.1,0.7-0.1,1
	c0,0.4-0.1,0.7-0.1,1l0,0l0,0c-0.8,4.8-3,10.9-6.5,18.2l0,0c-17.8,37.7-66.7,103.6-96.9,142.9l-5.7-81.8c7.8-4,14.6-10.5,19.2-18.1
	c3.8-6.2,6.2-13.2,6.2-20.3c0,0-21.2,9.4-42.9,9.4c-21.6,0-42.9-9.4-42.9-9.4c0,6.5,2,13,5.3,18.8c4.6,8.2,11.7,15.2,20,19.5
	l-5.9,84C252.2,547,203.9,475.8,189,438.2c-2.2-4.4-3.6-9-4.2-13.8c-0.1-0.8-0.2-1.7-0.3-2.5c0-0.3-0.1-0.6-0.1-0.9l0,0l0,0l0,0
	c-1.6,0.1-3.1,0.4-4.7,0.5c-1.6,0.2-3.1,0.3-4.6,0.5c-0.1,0-0.2,0-0.3,0C76,435.8,0,600.6,0,703.2c0,26.1,90.9,31.9,203.1,31.9
	h209.2c112.2,0,203.1-2.9,203.1-31.9C615.3,604,544.1,441.4,450,423.7z"/>
<path fill="#FDB813" d="M148.4,217.6L148.4,217.6h3.8c0,1.1-0.1,2.2-0.1,3.4c0,3.4,0.1,6.8,0.3,10.2c0.3,4.9,0.8,9.8,1.5,14.6
	c0.1,1.5,0.2,2.9,0.4,4.4c9.8,110.9,74.7,196.6,153.3,196.6c79.6,0,145.2-87.9,153.6-200.9c1.2-8.1,1.8-16.4,1.8-24.9
	c0-1.1,0-2.3-0.1-3.4h4.3h0.1c12.8,0,43.5-10.4,43.5-23.2c0-12.8-30.7-23.2-43.5-23.2h-0.1c-8.5-59.1-46.6-117.1-101.1-143L363,69.7
	l-2.2,26.8l-4-0.1l2.1-29.9l2.9-41.7l0.6-8.6l-25.5-1.1v1L335.5,60l-1.1,35.4l-0.1,2.1l-2,65.1h-4.4l2.8-103.4l1.2-44.1L332.3,0
	h-55.8l0.4,16.7l1.2,43.7l2.8,102.3h-4.4l-2-65.1l-0.1-2.1l-1.1-34l-1.4-43.4l-0.1-2.9l-26.5,1.1l0.9,12.4l2.9,40.8l1.9,27.1l-4,0.1
	l-2-23.9l-3-40.5c-50.6,27.7-85.3,82.8-93.5,139.1h0c-12.8,0-43.5,10.4-43.5,23.2C104.9,207.2,135.6,217.6,148.4,217.6z M191,217.6
	h229.1c4.2,13.3,5.9,26,2.1,34.5L444,227c-0.1,6.6-0.6,13.2-1.5,19.6c-7.4,99.2-65,176.4-134.9,176.4
	c-68.8,0-125.6-74.7-134.5-171.6c6,1.5,13.5,4.5,21.6,10.1C194.6,261.6,191.1,240.8,191,217.6z"/>
<polyline fill="#FDB813" points="637.3,210 781.5,210 781.5,274.8 637.3,274.8 "/>
<rect fill="#FDB813" x="790" y="210" width="144.2" height="64.8"/>
<polyline fill="#FDB813" points="637.3,356.5 781.5,356.5 781.5,421.4 637.3,421.4 "/>
<rect fill="#FDB813" x="790" y="356.5" width="144.2" height="64.8"/>
<rect fill="#FDB813" x="713.6" y="283.3" width="144.2" height="64.8"/>
<rect fill="#FDB813" x="713.6" y="429.8" width="144.2" height="64.8"/>
<polyline fill="#FDB813" points="560.9,283.3 705.2,283.3 705.2,348.1 560.9,348.1 "/>
<polyline fill="#FDB813" points="1010.6,348.1 866.4,348.1 866.4,283.3 1010.6,283.3 "/>
</svg>
