<?xml version="1.0" encoding="utf-8"?>
<!-- Generator: Adobe Illustrator 19.2.1, SVG Export Plug-In . SVG Version: 6.00 Build 0)  -->
<svg version="1.1" id="Слой_1" xmlns="http://www.w3.org/2000/svg" xmlns:xlink="http://www.w3.org/1999/xlink" x="0px" y="0px"
	 viewBox="30.6 44.1 550.8 550.8" style="enable-background:new 30.6 44.1 550.8 550.8;" xml:space="preserve">
<style type="text/css">
	.st0{fill:#FDB813;}
</style>
<g>
	<path class="st0" d="M306,44.1c-152.1,0-275.4,123.3-275.4,275.4S153.9,594.9,306,594.9c152.1,0,275.4-123.3,275.4-275.4
		S458.1,44.1,306,44.1z M306,564.3c-135,0-244.8-109.8-244.8-244.8C61.2,184.5,171,74.7,306,74.7c135,0,244.8,109.8,244.8,244.8
		C550.8,454.5,441,564.3,306,564.3z"/>
	<path class="st0" d="M345.8,191.9H238.5v134h-36.7v31.3h36.7v29.9h-36.7v31.3h36.7v53.2h37.2v-53.2h100.5v-31.3H275.7v-29.9h70.1
		c28.5,0,49.9-7.2,64.2-21.7c14.4-14.5,21.5-34.8,21.5-60.9c0-26.1-7.2-46.4-21.5-60.9C395.7,199.2,374.3,191.9,345.8,191.9z
		 M379.7,312.7c-9.8,8.8-25.3,13.1-46.4,13.1h-57.5V223.2h57.5c21.2,0,36.6,4.4,46.4,13.1c9.8,8.8,14.7,21.5,14.7,38.2
		C394.4,291.3,389.5,304,379.7,312.7z"/>
</g>
</svg>
