<?xml version="1.0" encoding="utf-8"?>
<!-- Generator: Adobe Illustrator 19.2.1, SVG Export Plug-In . SVG Version: 6.00 Build 0)  -->
<svg version="1.1" id="Isolation_Mode" xmlns="http://www.w3.org/2000/svg" xmlns:xlink="http://www.w3.org/1999/xlink" x="0px"
	 y="0px" viewBox="0 0 1175.4 911.5" style="enable-background:new 0 0 1175.4 911.5;" xml:space="preserve">
<style type="text/css">
	.st0{fill:#FDB813;}
	.st1{fill:#FFFFFF;}
</style>
<path class="st0" d="M295.4,44.3c0-18-16-18.6-34-18.6H130.7c-18,0-35.4,0.6-35.4,18.6v211.6l200-166.1L295.4,44.3L295.4,44.3z"/>
<path class="st0" d="M487.4,25.7C473.1,9.7,473.9,0,457.2,0c-16.6,0-16.8,12.6-30.2,25.5L0,386.8c0,17.3,13.5,29.4,30.2,29.4h36.5
	v495.3h781V416.2h36.5c16.7,0,30.2-12.1,30.2-29.4L487.4,25.7z"/>
<ellipse class="st1" cx="844" cy="490.2" rx="373.1" ry="370"/>
<g>
	<path class="st0" d="M847.1,176.8c-171.8,0-311.8,140-311.8,311.8s139.2,311.8,311.8,311.8c171.8,0,311.8-139.2,311.8-311.8
		C1158.1,316.7,1018.9,176.8,847.1,176.8z M973.1,544.6v45.1H844.8v46.7h-74.6v-46.7h-53.7v-44.3h53.7v-35.8h-53.7v-44.3h53.7v-140
		h118.9c14,0,27.2,1.6,40.4,5.5c11.7,3.9,22.5,9.4,31.9,17.1c15.6,13.2,29.5,35,29.5,69.2s-14,56-29.5,69.2
		c-9.4,7.8-20.2,14-31.9,17.1c-13.2,3.9-25.6,5.5-40.4,5.5h-44.3v35.7H973.1L973.1,544.6z"/>
	<path class="st0" d="M895.2,459.8c7-3.9,17.1-13.3,17.1-35s-10.9-31.9-17.1-35c-3.9-2.3-9.4-3.1-13.3-3.9
		c-3.9-0.8-7.8-0.8-11.7-0.8h-24.8v80.1h24.8C878.2,464.5,889.1,463,895.2,459.8z"/>
</g>
</svg>
