<?xml version="1.0" encoding="utf-8"?>
<!-- Generator: Adobe Illustrator 19.2.1, SVG Export Plug-In . SVG Version: 6.00 Build 0)  -->
<svg version="1.1" id="Слой_1" xmlns="http://www.w3.org/2000/svg" xmlns:xlink="http://www.w3.org/1999/xlink" x="0px" y="0px"
	 viewBox="84.2 61.8 443.7 530.4" style="enable-background:new 84.2 61.8 443.7 530.4;" xml:space="preserve">
<style type="text/css">
	.st0{fill:none;stroke:#FDB813;stroke-width:24;stroke-miterlimit:10;}
</style>
<path class="st0" d="M214.2,561.2c-32.4-67.3-15.3-105.3,9.8-141.4c26.9-39.8,34.3-78.9,34.3-78.9s21.4,27.5,12.9,71
	c37.9-41.6,44.7-108.9,39.2-134c85.1,59.4,121.8,188.5,72.2,284c260.7-147.5,64.9-368.4,30.6-392.9c11.6,25.1,13.5,66.7-9.2,87.5
	C364.8,109,268.7,79,268.7,79c11.6,75.9-41,159.1-91.8,221.5c-1.8-30.6-3.7-51.4-19.6-80.2c-3.7,55.1-45.9,99.8-56.9,155.4
	C84.5,448.6,112,503.7,214.2,561.2z"/>
</svg>
