<?xml version="1.0" encoding="utf-8"?>
<!-- Generator: Adobe Illustrator 19.2.1, SVG Export Plug-In . SVG Version: 6.00 Build 0)  -->
<svg version="1.1" id="Слой_1" xmlns="http://www.w3.org/2000/svg" xmlns:xlink="http://www.w3.org/1999/xlink" x="0px" y="0px"
	 viewBox="-6 77.2 624 512.5" style="enable-background:new -6 77.2 624 512.5;" xml:space="preserve">
<style type="text/css">
	.st0{fill:#FDB813;stroke:#FDB813;stroke-width:12;stroke-miterlimit:10;}
</style>
<path class="st0" d="M610,510.3l0-0.2c0,0,0-0.1,0-0.1c-0.2-1-0.6-5.8-0.5-10.4c0-5.5,0.3-10.8,0.5-12.1l0-0.2
	c0.6-3.6,1.6-10.2,1.6-15.8c0-2.3-0.1-4.9-1.2-7.7c0-0.1-0.1-0.1-0.1-0.2c-2-4.3-5.2-6.4-7.6-7.9l-0.3-0.2c-0.1-0.1-0.3-0.2-0.4-0.3
	v-9.3c0-0.4,0-1.3,0-2.2c0-2.5-0.2-5.3-1.3-8.2c-1.2-3.9-5.5-8.1-10.9-8.1l-0.3,0c-3.8,0-10.4,0.2-15,0.4c-0.4-0.7-0.8-1.3-1.2-2
	c-2.4-3.5-5-6.1-7.8-7.9c-7.9-89.2-35.1-161.4-76.8-203.7c-1.3-5.4-3.8-9.9-7.4-13.1c-3.4-3.1-7.6-5-12.7-5.9
	c-1.1-0.9-2.6-1.9-4.3-3.1l-1.6-1c-8.1-5.7-20.9-14.4-28.4-19.4c-0.6-3.1-1.6-7.4-3.2-12c-3.2-8.8-7.8-18.1-18-21.6
	c-16-4.9-64.6-13.6-65-13.7c-4.2-0.7-9.4-1.8-12.3-3c-1.7-0.8-2-1.2-2-1.2c0,0,0-0.1-0.1-0.3c-0.6-4.1-1.4-10-2-14.8
	c-0.4-2.7-0.7-5.1-0.9-6.7c-0.1-0.6-0.1-1.1-0.2-1.8c-0.2-1.6-0.4-3.6-1.1-5.7c-0.8-2.3-1.9-4.1-3.6-5.5c-1.9-1.6-4.5-2.5-7.1-2.5
	h-0.1H306c0,0,0,0,0,0h0h-12.8H293c-2.7,0-5.3,0.9-7.2,2.5c-1.6,1.4-2.8,3.1-3.5,5.4c-0.7,2.2-0.9,4.2-1.1,5.8
	c-0.1,0.6-0.1,1.2-0.2,1.7c-0.2,1.6-0.5,4-0.9,6.7c-0.6,4.8-1.4,10.8-2.1,15c0,0.1-0.1,0.2-0.1,0.2c0,0-0.3,0.4-2.1,1.2
	c-2.7,1.2-8,2.3-12.2,3c-0.5,0.1-49.1,8.8-65,13.7c-10.2,3.5-14.9,12.8-18.1,21.5c-1.6,4.6-2.6,8.9-3.2,12
	c-7.5,5.1-20.2,13.7-28.4,19.4l-1.5,1c-1.8,1.3-3.2,2.3-4.4,3.2c-5,0.8-9.3,2.8-12.7,5.9c-3.6,3.2-6.1,7.7-7.4,13.1
	c-41.7,42.3-69,114.5-76.9,203.7c-2.9,1.8-5.5,4.4-7.8,7.9c-0.4,0.7-0.9,1.3-1.2,2c-4.5-0.2-11.2-0.4-15-0.4h-0.2
	c-5.4,0-9.7,4.1-10.9,8.1c-1.1,2.9-1.3,5.7-1.3,8.2c0,1,0.1,1.8,0.1,2.2v9.4c-0.1,0.1-0.2,0.1-0.3,0.2l-0.4,0.3
	c-2.4,1.5-5.6,3.6-7.6,7.9c0,0.1-0.1,0.1-0.1,0.2c-1.1,2.8-1.2,5.3-1.2,7.6c0,5.7,1.1,12.3,1.6,15.8l0,0.2c0.2,1.3,0.5,6.6,0.5,12.1
	c0.1,4.6-0.3,9.4-0.5,10.4c0,0,0,0,0,0.1l0,0.2c-0.5,1.5-2,6.2-2,12.2c0,5,1.1,14.6,9.1,23.1c7.6,8.2,19.9,13.8,36.3,16.7
	c25.3,4.5,56.9,8,118.1,14.2c60.8,6.1,141.6,7.1,142.4,7.1h0h0c0,0,0,0,0,0c0,0,0,0,0,0c0.8,0,81.6-0.9,142.4-7.1
	c61.2-6.2,92.8-9.7,118.1-14.2c16.4-2.9,28.6-8.6,36.3-16.7c8-8.5,9.2-18.2,9.1-23.2C612,516.5,610.5,511.9,610,510.3z M465,203.3
	c2.9-2.8,8.8-1.3,13.1,3.3c4.3,4.6,5.5,10.5,2.5,13.3c-2.9,2.7-8.8,1.2-13.1-3.3C463.2,211.9,462.1,206,465,203.3z M134.7,207.1
	c4.8-4.1,10.8-5,13.4-2c2.6,3,0.9,8.8-3.9,13c-4.7,4.1-10.7,5.1-13.4,2C128.3,217,130,211.2,134.7,207.1z M60.5,429.9l0.1-3.6
	c0,0.1,0.1,0.1,0.1,0.2l0.3-3c8.9-107.7,41.9-164.7,68.3-193.7c5.8-0.1,11.9-2.1,16.8-5.4c6.4-4.4,10.1-11.2,10.1-18.7
	c0-0.4,0-0.7,0-1.1c0.5-0.4,1.1-0.8,1.7-1.2c3.2-2.3,7.5-5.3,12.8-8.9l1.3-0.9L167.8,381c0,0.8,0.3,1.5,0.8,2.1
	c0.5,0.6,1.3,0.9,2.1,0.9l2.7,0.1h0.2l2.9,0.1c0,0,0.1,0,0.1,0c1.6,0,2.8-1.2,2.9-2.8c0,0,0-0.2,0-0.6c0.4-10.5,1.7-47.9,3.6-88.7
	c1.9-40.6,4.9-93.1,8.2-113l0.1-0.7c0.1-0.4,0.2-0.9,0.2-1.3l1.3-6.7c0.5-2.1,1.1-4,1.7-5.8c2.3-7,6-11.7,8.3-12.2
	c0.1,0,0.1,0,0.2,0c12.7-3.9,53.7-11.6,63.2-13.2c3-0.5,6.1-1.1,9-1.9l1.8,79.3l-29,10.7c-0.7,0.3-1.3,0.8-1.7,1.5
	c-0.3,0.7-0.4,1.5-0.1,2.3l1,2.8c0.4,1.2,1.6,1.9,2.8,1.9c0.4,0,0.7-0.1,1-0.2l33-12.2c1.1-0.4,1.9-1.4,1.9-2.6l0.5-9.7l5.7-86.9
	c0.2-0.7,0.3-1.3,0.4-1.9c0.6-4.3,1.4-10.4,2.1-15.2c0.4-2.7,0.7-5,0.9-6.5c0.1-0.7,0.2-1.4,0.3-2.1c0-0.2,0-0.4,0.1-0.7h5.2h4.8h0
	c0,0,0,0,0,0h4.8h5.2c0,0.2,0.1,0.5,0.1,0.7c0.1,0.6,0.2,1.3,0.2,2.1c0.2,1.6,0.5,3.9,0.9,6.6c0.7,4.8,1.4,10.8,2.1,15.2
	c0.1,0.6,0.2,1.2,0.4,1.9l5.7,86.9l0.5,9.6c0.1,1.2,0.8,2.2,1.9,2.6l33,12.2c0.3,0.1,0.7,0.2,1,0.2c1.2,0,2.3-0.7,2.8-1.9l1-2.8
	c0.3-0.7,0.3-1.5-0.1-2.3c-0.3-0.7-0.9-1.3-1.7-1.5l-29-10.7l1.8-79.3c2.9,0.8,6,1.3,9,1.9c9.5,1.7,50.5,9.3,63.2,13.2
	c0.1,0,0.1,0,0.2,0c2.3,0.5,6,5.3,8.3,12.2c0.6,1.8,1.2,3.8,1.7,5.8l1.2,6.7c0.1,0.4,0.2,0.9,0.3,1.4l0.1,0.5
	c3.3,20,6.3,72.5,8.2,113.1c1.9,40.8,3.2,78.2,3.6,88.7c0,0.4,0,0.5,0,0.5c0.1,1.6,1.4,2.8,3,2.8c0,0,0.1,0,0.1,0l3-0.1h0.3l2.7-0.1
	c0.8,0,1.5-0.4,2.1-0.9c0.6-0.6,0.9-1.3,0.8-2.1l-4.1-187.5c0.4,0.3,0.9,0.6,1.3,0.9c5.3,3.6,9.6,6.6,12.9,8.9
	c0.6,0.4,1.2,0.8,1.7,1.2c0,0.4,0,0.7,0,1.1c0,7.5,3.7,14.3,10.2,18.7c4.9,3.3,10.9,5.3,16.8,5.4c26.5,29,59.4,86,68.4,193.7l0.2,3
	c0-0.1,0.1-0.1,0.1-0.2l0.1,3.6c0.1,3.8,0.1,7.5,0.1,11c0,16.3-1.3,28.8-8,36.8c-7.4,9-22.1,13.7-46.2,14.6c0,0-0.1,0-0.1,0
	c-82.7,0-186.3,2.4-191.3,2.5c-5-0.1-108.8-2.5-191.5-2.5c-24-0.9-38.7-5.6-46.1-14.6c-6.7-8-8-20.5-8-36.8
	C60.4,437.4,60.4,433.7,60.5,429.9z M592,535.6c-5.4,5.8-14.8,9.9-28.1,12.2c-24.9,4.4-89.8,12.5-147,16.2
	c-58.8,3.8-110.4,4.7-111.1,4.7c-0.8,0-52.8-1-110.9-4.7c-57.2-3.7-122.1-11.7-147-16.2c-13.3-2.4-22.7-6.5-28.1-12.3
	c-3.5-3.8-5.1-7.9-5.1-13.1c0-3.7,0.9-6.7,1.3-7.8c1.1-3.9,1.2-8.9,1.2-14.7v-0.3c0-6.4-0.3-11.7-0.7-14.5c-1-6.1-1.5-10.7-1.5-13.7
	c0-0.8,0-1.4,0.1-1.8c0.9-0.8,2.9-2.2,3.8-2.5c0.1-0.1,0.2-0.1,0.3-0.1c0.5-0.2,0.7-0.4,0.8-0.4l2.7-1.1c1.1-0.5,1.8-1.5,1.8-2.7
	V460c0,0,0-12.7,0-13.9c0-0.3,0-0.6,0-1c0-0.3,0-0.7,0-1.2c0-0.1,0-0.1,0-0.2c0-0.4,0-0.9,0.1-1.3c5.5,0.1,13.9,0.5,16.7,0.6
	l3.4,0.2c0,0,0.1,0,0.1,0c1.2,0,2.3-0.8,2.8-1.9l0.9-2.4c0,0.7,0,1.3,0,2v0.3c0,3.9-0.1,7.5-0.1,10.9c0,3.1-0.1,6-0.1,8.7
	c0,14.3,0.9,26.9,11.6,35.2c9.4,7.2,24.3,10.3,54.8,11.5c35.2,0,78.2,0.4,127.7,1.1c33.1,0.5,58.3,1,63,1.1c0,0,0.1,0,0.1,0
	s0.1,0,0.1,0c0,0,0.2,0,0.3,0c0.1,0,0.3,0,0.3,0c0,0,0.1,0,0.1,0c0,0,0.1,0,0.1,0c4.7-0.1,30-0.6,63-1.1
	c49.6-0.8,92.5-1.1,127.6-1.1c30.6-1.2,45.4-4.3,54.9-11.5c10.8-8.3,11.6-20.9,11.6-35.2c0-2.7,0-5.6-0.1-8.7c0-3.4-0.1-7-0.1-10.9
	V441c0-0.7,0-1.3,0-2l0.9,2.4c0.4,1.1,1.5,1.9,2.8,1.9c0.1,0,0.1,0,0.1,0l3.2-0.2c2.9-0.1,11.3-0.5,16.8-0.6c0,0.4,0.1,0.9,0,1.3
	c0,0.1,0,0.1,0,0.2c0,0.5,0,0.9,0,1.2c0,0.4,0,0.7,0,1c0,1.2,0,13.9,0,13.9v2.9c0,1.2,0.7,2.3,1.8,2.7l2.7,1.1c0,0,0.3,0.1,0.8,0.4
	c0.1,0.1,0.2,0.1,0.3,0.1c0.9,0.3,2.9,1.7,3.9,2.5c0,0.4,0.1,1,0.1,1.8c0,3-0.5,7.6-1.5,13.7c-0.5,2.8-0.7,8.1-0.7,14.5v0.4
	c0.1,5.8,0.1,10.8,1.2,14.6c0.4,1.2,1.3,4.2,1.3,7.9C597.2,527.7,595.5,531.9,592,535.6z"/>
</svg>
