<?xml version="1.0" encoding="utf-8"?>
<!-- Generator: Adobe Illustrator 19.2.1, SVG Export Plug-In . SVG Version: 6.00 Build 0)  -->
<svg version="1.1" id="Layer_1" xmlns="http://www.w3.org/2000/svg" xmlns:xlink="http://www.w3.org/1999/xlink" x="0px" y="0px"
	 viewBox="211.2 0 768.2 952.4" style="enable-background:new 211.2 0 768.2 952.4;" xml:space="preserve">
<style type="text/css">
	.st0{fill:#FDB813;}
</style>
<path class="st0" d="M979.4,384.1C979.4,172,807.4,0,595.3,0C383.1,0,211.2,172,211.2,384.1c0,171.1,111.8,316,266.3,365.7l-2.7,0.4
	c-0.7,0.1-1.4,0.2-2.1,0.4c-10.6,2.7-17.1,13.5-14.4,24.1c2.2,8.6,9.7,14.5,18.1,15v38.8l-1.7,0.2c-0.7,0.1-1.4,0.2-2.1,0.4
	c-10.6,2.7-17.1,13.5-14.4,24.1c2.2,8.6,9.7,14.5,18.1,15V907l-1.6,0.2c-0.7,0.1-1.4,0.2-2.1,0.4c-10.6,2.7-17.1,13.5-14.4,24.1
	c2.5,10,12.2,16.3,22.2,14.8l95-14.2c0,0.7,0,1.5,0.1,2.2c1.1,10.9,10.8,18.9,21.7,17.8c10.9-1.1,18.9-10.8,17.8-21.7
	c-0.1-1.4-0.4-2.8-0.8-4.1l101.6-15.2c0.7-0.1,1.4-0.2,2.1-0.4c10.6-2.7,17.1-13.5,14.4-24.1c-2.2-8.5-9.6-14.4-17.9-14.9v-38.9
	l1.5-0.2c0.7-0.1,1.4-0.2,2.1-0.4c10.6-2.7,17.1-13.5,14.4-24.1c-2.2-8.6-9.6-14.4-17.9-14.9v-44
	C868.2,699.3,979.4,554.7,979.4,384.1z M351.7,627.7c-31.7-31.7-56.5-68.5-73.8-109.5c-18-42.4-27.1-87.5-27.1-134.1
	c0-46.5,9.1-91.6,27.1-134.1c17.3-41,42.2-77.9,73.8-109.5c31.6-31.6,68.5-56.5,109.5-73.8c42.4-17.9,87.5-27,134.1-27
	c46.5,0,91.6,9.1,134.1,27c41,17.4,77.9,42.2,109.5,73.8c31.7,31.7,56.5,68.5,73.8,109.5c18,42.4,27.1,87.5,27.1,134.1
	c0,46.5-9.1,91.6-27.1,134.1c-17.3,41-42.2,77.9-73.8,109.5c-31.6,31.6-68.5,56.5-109.5,73.8c-29.4,12.4-60,20.6-91.6,24.5v-0.1
	l-2.3,0.3c-13.3,1.5-26.7,2.3-40.2,2.3c-3.8,0-7.6-0.1-11.4-0.2c-11.5-55.6-6.8-109.8,14-162c24.1,15.6,51.4,23.2,78.6,23.2
	c43.5,0,86.4-19.5,115-56.6c79.5-103.4,44.3-294.9,44.3-294.9s-185.7,14.5-268.2,111.8c-62.9-33.3-145.2-36.1-171.8-36.1
	c-5.6,0-8.6,0.1-8.6,0.1s-9.6,151.1,61.2,223.6c22.1,22.6,51.3,33.9,80.6,33.9c8.7,0,17.5-1,26-3.1c-2.5,7.4-4.7,14.8-6.7,22.3
	c-11.4,43.7-13.2,88.7-5.5,133.9c-28-4.3-55.3-12-81.6-23.1C420.2,684.2,383.4,659.3,351.7,627.7z M721.2,409.2L721.2,409.2
	c6.1-4.3,9.6-11.8,8.3-19.6c-1.8-10.8-12-18.1-22.8-16.3c-3,0.5-5.6,1.6-7.9,3.2v0c-2.1,1.5-52,36-95.7,98.3
	c-5.7,8.1-11,16.4-16,24.7c-7.5-12.4-12.5-26.3-14.4-41.1c-3.6-27.8,3.8-55.4,20.9-77.7c34.2-44.5,97.5-70.1,144.7-83.7
	c23.7-6.8,45.8-11.4,63.2-14.4c1.6,17.6,2.8,40.1,2.3,64.7c-1,49-9.5,116.8-43.7,161.3c-20.1,26.1-50.5,41.1-83.5,41.1
	c-22.2,0-43.3-6.8-61.3-19.8c5.8-10.6,12.4-21,19.6-31.4C674.4,441.9,720.8,409.5,721.2,409.2z M532.2,440.2
	c-6.4-7.4-10.6-12.1-11-12.5l0,0c-3.4-3.8-8.2-6.3-13.7-6.6c-10.9-0.6-20.3,7.7-20.9,18.7c-0.3,5.5,1.6,10.6,5,14.3l0,0
	c21.8,24.4,45.5,52.9,61.2,73.7c-7.6,2.6-15.6,4-23.8,4c-19.8,0-38.4-7.8-52.2-22c-22.8-23.3-38.7-63.2-46.1-115.3
	c-2-14.5-3.2-28.2-3.8-39.9c16.2,1.2,36.2,3.5,57,7.9c23.8,5.1,44.6,12.1,61.9,20.8C537.3,401.5,532.8,420.9,532.2,440.2z
	 M674.7,877.4l-158.6,23.7v-38.4L674.7,839V877.4z M674.7,798.9l-158.6,23.7v-38.4l125-18.7c11.3-1.4,22.5-3.2,33.6-5.5V798.9z"/>
</svg>
