<?xml version="1.0" encoding="utf-8"?>
<!-- Generator: Adobe Illustrator 19.2.1, SVG Export Plug-In . SVG Version: 6.00 Build 0)  -->
<svg version="1.1" id="Layer_1" xmlns="http://www.w3.org/2000/svg" xmlns:xlink="http://www.w3.org/1999/xlink" x="0px" y="0px"
	 viewBox="188.6 166.4 793.5 830" style="enable-background:new 188.6 166.4 793.5 830;" xml:space="preserve">
<style type="text/css">
	.st0{fill:#FDB813;stroke:#FDB813;stroke-width:3;stroke-miterlimit:10;}
</style>
<g>
	<path class="st0" d="M585.4,559.5L190.1,373.8v-19l395.3-186.7l395.3,186.7v19L585.4,559.5z M235.8,363.3l348.6,164.8L933,363.3
		L584.4,198.6L235.8,363.3z"/>
</g>
<g>
	<path class="st0" d="M585.4,451.9L410.1,369v-12.4l5.7-2.9l169.5-80l175.3,82.9V369l-5.7,2.9L585.4,451.9z M440.6,363.3L584.4,431
		l143.8-67.6l-143.8-67.6L440.6,363.3z"/>
</g>
<g>
	<polygon class="st0" points="585.4,994.8 190.1,808.1 190.1,363.3 218.7,363.3 218.7,790 585.4,962.4 952.1,790 952.1,363.3 
		980.6,363.3 980.6,808.1 	"/>
</g>
<g>
	<rect x="571.1" y="544.3" class="st0" width="28.6" height="434.3"/>
</g>
<g>
	<rect x="263.4" y="394.8" class="st0" width="9.5" height="119.1"/>
</g>
<g>
	<rect x="263.4" y="571" class="st0" width="9.5" height="259.1"/>
</g>
<g>
	<rect x="358.7" y="442.4" class="st0" width="9.5" height="119.1"/>
</g>
<g>
	<rect x="358.7" y="618.6" class="st0" width="9.5" height="259.1"/>
</g>
<g>
	<rect x="453.9" y="490" class="st0" width="9.5" height="119.1"/>
</g>
<g>
	<rect x="453.9" y="666.2" class="st0" width="9.5" height="259.1"/>
</g>
<g>
	<rect x="319.6" y="733.8" class="st0" width="9.5" height="119.1"/>
</g>
<g>
	<rect x="319.6" y="417.6" class="st0" width="9.5" height="259.1"/>
</g>
<g>
	<rect x="414.9" y="782.4" class="st0" width="9.5" height="119.1"/>
</g>
<g>
	<rect x="414.9" y="466.2" class="st0" width="9.5" height="259.1"/>
</g>
<g>
	<rect x="510.1" y="828.1" class="st0" width="9.5" height="119.1"/>
</g>
<g>
	<rect x="510.1" y="511.9" class="st0" width="9.5" height="259.1"/>
</g>
<g>
	<rect x="647.3" y="833.8" class="st0" width="9.5" height="119.1"/>
</g>
<g>
	<rect x="647.3" y="517.6" class="st0" width="9.5" height="259.1"/>
</g>
<g>
	<rect x="742.5" y="786.2" class="st0" width="9.5" height="119.1"/>
</g>
<g>
	<rect x="742.5" y="470" class="st0" width="9.5" height="259.1"/>
</g>
<g>
	<rect x="837.8" y="738.6" class="st0" width="9.5" height="119.1"/>
</g>
<g>
	<rect x="837.8" y="422.4" class="st0" width="9.5" height="259.1"/>
</g>
<g>
	<rect x="702.5" y="495.7" class="st0" width="9.5" height="119.1"/>
</g>
<g>
	<rect x="702.5" y="671" class="st0" width="9.5" height="259.1"/>
</g>
<g>
	<rect x="797.8" y="446.2" class="st0" width="9.5" height="119.1"/>
</g>
<g>
	<rect x="797.8" y="622.4" class="st0" width="9.5" height="259.1"/>
</g>
<g>
	<rect x="893" y="400.5" class="st0" width="9.5" height="119.1"/>
</g>
<g>
	<rect x="893" y="575.7" class="st0" width="9.5" height="259.1"/>
</g>
</svg>
