<?xml version="1.0" encoding="utf-8"?>
<!-- Generator: Adobe Illustrator 19.2.1, SVG Export Plug-In . SVG Version: 6.00 Build 0)  -->
<svg version="1.1" id="Layer_1" xmlns="http://www.w3.org/2000/svg" xmlns:xlink="http://www.w3.org/1999/xlink" x="0px" y="0px"
	 viewBox="137.2 54.5 916.5 844.6" style="enable-background:new 137.2 54.5 916.5 844.6;" xml:space="preserve">
<path fill="#FDB813" d="M791.5,519.1c-26.7,21.9-46.7,49.5-63.8,81c9.5,4.8,19,9.5,28.6,12.4c41.9,14.3,82.9,9.5,122.9-7.6
	c54.3-23.8,94.3-63.8,123.8-113.3c49.5-84.8,62.9-175.2,40-270.5c-2.9-10.5-6.7-21.9-10.5-32.4c-1.9-3.8-5.7-8.6-8.6-8.6
	c-2.9,0-7.6,3.8-9.5,7.6c-26.7,43.8-62.9,77.1-112.4,93.3c-23.8,7.6-49.5,10.5-74.3,15.2c-31.4,4.8-61.9,9.5-90.5,23.8
	c-41.9,21-74.3,49.5-90.5,94.3c-13.3,37.1-8.6,74.3,10.5,108.6c5.7,10.5,6.7,18.1,1.9,27.6c-1,1.9-1.9,3.8-3.8,5.7
	c-9.5,13.3-17.1,28.6-21.9,43.8c-2.9-3.8-5.7-7.6-9.5-11.4c-4.8-5.7-5.7-9.5-3.8-16.2c15.2-65.7-35.2-130.5-102.9-127.6
	c-11.4,1-21.9,1-33.3,1c-26.7,0-51.4-6.7-73.3-22.9c-20-14.3-34.3-33.3-44.8-55.2c-1.9-3.8-5.7-8.6-9.5-8.6c-2.9,0-7.6,4.8-9.5,7.6
	c-3.8,8.6-7.6,17.1-9.5,25.7c-9.5,37.1-6.7,74.3,2.9,110.5c16.2,58.1,48.6,103.8,101,134.3c26.7,16.2,55.2,25.7,87.6,22.9
	c12.4-1,23.8-4.8,35.2-12.4c-34.3-54.3-83.8-91.4-131.4-131.4c34.3,6.7,64.8,21.9,92.4,41.9c46.7,34.3,84.8,74.3,101.9,132.4l0,0
	c6.7,34.3,21,62.9,41,89.5c-34.3,12.4-70.5,19-108.6,19c-178.1,0-322.9-144.8-322.9-322.9S381,153.3,559.1,153.3
	c84.8,0,161,32.4,219.1,85.7c12.4-2.9,23.8-4.8,35.2-6.7h1.9c5.7-1,10.5-1.9,16.2-2.9c18.1-2.9,34.3-5.7,48.6-9.5
	c3.8-1,8.6-2.9,12.4-4.8c-10.5-13.3-21-25.7-33.3-37.1C694.3,13.3,426.7,13.3,261,178.1C101.9,336.2,96.2,590.5,243.8,756.2l4.8,3.8
	c-16.2,34.3-43.8,77.1-86.7,98.1c-14.3,6.7-11.4,28.6,4.8,31.4c47.6,7.6,116.2-1,180-49.5l1,1c161.9,95.2,374.3,73.3,513.4-65.7
	c40-40,70.5-85.7,90.5-135.2c-14.3,9.5-29.5,17.1-45.7,24.8c-33.3,14.3-66.7,21.9-99.1,21.9l0,0c-24.8,29.5-55.2,54.3-89.5,72.4
	c-16.2-17.1-30.5-36.2-37.1-61c-9.5-33.3-5.7-63.8,9.5-96.2c2.9-5.7,5.7-12.4,9.5-18.1c24.8-44.8,61-75.2,106.7-101
	c35.2-19,71.4-38.1,109.5-51.4c1.9-1,3.8-1,5.7-1c0,1,1,1.9,1,2.9c-2.9,1.9-5.7,3.8-8.6,5.7C869.6,463.8,828.6,488.6,791.5,519.1z"
	/>
</svg>
