<?xml version="1.0" encoding="utf-8"?>
<!-- Generator: Adobe Illustrator 19.2.1, SVG Export Plug-In . SVG Version: 6.00 Build 0)  -->
<svg version="1.1" id="Layer_1" xmlns="http://www.w3.org/2000/svg" xmlns:xlink="http://www.w3.org/1999/xlink" x="0px" y="0px"
	 viewBox="297.6 0 595.3 952.4" style="enable-background:new 297.6 0 595.3 952.4;" xml:space="preserve">
<path fill="#FDB813" d="M595.3,0C431.2,0,297.6,133.5,297.6,297.6c0,73.8,33.6,141.3,66.2,206.5c27.2,54.7,52.9,106.3,52.9,150.7
	c0,32.9,26.6,59.5,59.5,59.5h238.1c32.9,0,59.5-26.6,59.5-59.5c0-46.6,26-98.4,53.5-153.2c32.2-64.2,65.5-130.6,65.5-203.9
	C892.9,133.5,759.4,0,595.3,0z M714.3,654.8H476.2c0-117.2-119.1-238.1-119.1-357.2c0-131.5,106.6-238.1,238.1-238.1
	c131.5,0,238.1,106.6,238.1,238.1C833.4,416.7,714.3,533.9,714.3,654.8z M714.3,178.6c0,20.5,50.2,306.9-119.1,297.6
	c0,59.5,0,119.1,0,119.1h-59.5c0,0,27.9-202.8,89.3-262.3c-1.9-3.7-89.3,24.2-89.3,143.2C535.7,476.2,368.3,260.4,714.3,178.6z
	 M714.3,803.6c16.5,0,29.8,13.3,29.8,29.8c0,16.5-13.3,29.8-29.8,29.8c16.5,0,29.8,13.3,29.8,29.8c0,16.5-13.3,29.8-29.8,29.8h-59.5
	c-14.1,18.7-36.1,29.8-59.5,29.8c-23.4,0-45.5-11-59.5-29.8h-59.5c-16.5,0-29.8-13.3-29.8-29.8c0-16.5,13.3-29.8,29.8-29.8
	c-16.5,0-29.8-13.3-29.8-29.8c0-16.5,13.3-29.8,29.8-29.8c-16.5,0-29.8-13.3-29.8-29.8c0-16.5,13.3-29.8,29.8-29.8h238.1
	c16.5,0,29.8,13.3,29.8,29.8C744.1,790.3,730.8,803.6,714.3,803.6z"/>
</svg>
