<?xml version="1.0" encoding="utf-8"?>
<!-- Generator: Adobe Illustrator 19.2.1, SVG Export Plug-In . SVG Version: 6.00 Build 0)  -->
<svg version="1.1" id="Layer_1" xmlns="http://www.w3.org/2000/svg" xmlns:xlink="http://www.w3.org/1999/xlink" x="0px" y="0px"
	 viewBox="183.6 51.9 848.7 848.7" style="enable-background:new 183.6 51.9 848.7 848.7;" xml:space="preserve">
<g>
	<path d="M608,51.9c-233.9,0-424.4,190.5-424.4,424.4c0,233.9,189.4,424.4,424.4,424.4c233.9,0,424.4-189.4,424.4-424.4
		C1031.3,242.3,841.9,51.9,608,51.9z M779.4,552.4v61.4H604.8v63.5H503.2v-63.5h-73v-60.3h73v-48.7h-73v-60.3h73V254h161.9
		c19,0,37,2.1,55,7.4c15.9,5.3,30.7,12.7,43.4,23.3c21.2,18,40.2,47.6,40.2,94.2c0,46.6-19,76.2-40.2,94.2
		c-12.7,10.6-27.5,19-43.4,23.3c-18,5.3-34.9,7.4-55,7.4h-60.3v48.7H779.4L779.4,552.4z"/>
	<path d="M673.6,437.1c9.5-5.3,23.3-18,23.3-47.6c0-29.6-14.8-43.4-23.3-47.6c-5.3-3.2-12.7-4.2-18-5.3c-5.3-1.1-10.6-1.1-15.9-1.1
		h-33.9v109h33.9C650.3,443.4,665.1,441.3,673.6,437.1z"/>
</g>
</svg>
