<?xml version="1.0" encoding="utf-8"?>
<!-- Generator: Adobe Illustrator 19.2.1, SVG Export Plug-In . SVG Version: 6.00 Build 0)  -->
<svg version="1.1" id="Слой_1" xmlns="http://www.w3.org/2000/svg" xmlns:xlink="http://www.w3.org/1999/xlink" x="0px" y="0px"
	 viewBox="35.9 49.4 540.2 540.2" style="enable-background:new 35.9 49.4 540.2 540.2;" xml:space="preserve">
<style type="text/css">
	.st0{fill:#FDB813;}
</style>
<path class="st0" d="M306,49.4c74.6,0,142.1,30.2,191,79.1c48.9,48.9,79.1,116.4,79.1,191c0,74.6-30.2,142.1-79.1,191
	c-48.9,48.9-116.4,79.1-191,79.1c-74.6,0-142.1-30.2-191-79.1c-48.9-48.9-79.1-116.4-79.1-191c0-74.6,30.2-142.1,79.1-191
	C163.9,79.6,231.4,49.4,306,49.4L306,49.4z M306.6,299.6c-4.6,0-8.8,1.5-12.2,4l-80.5-46l-8.1,14.2l80.4,46
	c-0.1,0.8-0.1,1.6-0.1,2.5c0,11.4,9.2,20.6,20.6,20.6c11.4,0,20.6-9.2,20.6-20.6c0-2.8-0.6-5.4-1.6-7.9L447,197.6
	c-18.9-19-33-32.1-57.5-44.4c-20-10-41.8-16.5-64.4-18.8l-1.2,12.2c21.2,2.2,41.5,8.2,60.2,17.5c15.5,7.8,29.9,17.9,42.6,30.2
	l-18.9,17.9c-10.1-9.5-21.4-17.6-33.7-23.9c-13.4-6.9-27.9-11.8-42.9-14.4L329,186c13.8,2.4,27.1,6.9,39.4,13.2
	c11,5.7,21.2,12.9,30.3,21.5l-19.5,18.5c-5-4.6-10.5-8.7-16.3-12.2c-7.2-4.4-15-8-23.1-10.7l-3.8,11.7c7.2,2.3,14,5.5,20.5,9.5
	c4.9,3,9.5,6.4,13.7,10.2L313.9,301C311.6,300.1,309.1,299.6,306.6,299.6L306.6,299.6z M188.6,103.8l16.2,28.1l-10.6,6.1L178,110
	c-16.6,10.2-31.9,22.2-45.6,35.9c-13.7,13.7-25.8,29-35.9,45.6l28.1,16.2l-6.1,10.6l-28.1-16.2c-17.2,31.5-27.7,67.2-29.6,105.2
	h54.1v24.6H60.8c1.9,38,12.4,73.7,29.6,105.2l28.1-16.3l6.1,10.6l-28.1,16.2c10.2,16.6,22.2,31.9,35.9,45.6
	c13.7,13.7,29,25.7,45.6,35.9l16.2-28.1l10.6,6.1l-16.2,28.1c31.5,17.2,67.2,27.7,105.2,29.6v-54.1h24.6v54.1
	c38-1.9,73.6-12.4,105.2-29.6L407.2,507l10.6-6.1L434,529c16.6-10.2,31.9-22.2,45.6-35.9c13.7-13.7,25.7-29,35.9-45.6l-28.1-16.2
	l6.1-10.6l28.1,16.3c17.2-31.5,27.7-67.2,29.6-105.2h-54.1v-24.6h54.1c-1.9-38-12.4-73.6-29.6-105.2l-28.1,16.2l-6.1-10.6l28.1-16.2
	c-10.2-16.6-22.2-31.9-35.9-45.6c-13.7-13.7-29-25.8-45.6-35.9l-16.2,28.1l-10.6-6.1l16.3-28.1c-31.5-17.2-67.2-27.7-105.2-29.6
	v54.1h-24.6V74.3C255.8,76.2,220.1,86.6,188.6,103.8z"/>
</svg>
