<?xml version="1.0" encoding="utf-8"?>
<!-- Generator: Adobe Illustrator 19.2.1, SVG Export Plug-In . SVG Version: 6.00 Build 0)  -->
<svg version="1.1" id="Layer_1" xmlns="http://www.w3.org/2000/svg" xmlns:xlink="http://www.w3.org/1999/xlink" x="0px" y="0px"
	 viewBox="165.7 161.1 839.1 606.8" style="enable-background:new 165.7 161.1 839.1 606.8;" xml:space="preserve">
<g fill="#FDB813">
	<path d="M989.6,554.4L871.7,405.1c-22.3-28.3-55.4-43.2-91.4-43.2H572.2c-7.6,114.3-100.7,205.5-224.6,206.4v146h71.2
		c0-38.1,34.1-76,76-76c41.9,0,76,37.9,76,76h230.9c0-38.1,34.1-76,76-76c41.9,0,76,37.9,76,76h23.5c17.2,0,27.5-16,27.5-33.3v-77.4
		C1004.8,585.8,1000.7,568.4,989.6,554.4z M817.4,542.9c-10.5,0-12.6-10.6-12.6-21.1V462c0-10.5,2.1-14.3,12.6-14.3h50.9l74.7,95.2
		H817.4z"/>
	<circle cx="494.9" cy="712.3" r="55.6"/>
	<circle cx="877.8" cy="712.3" r="55.6"/>
	<path d="M527.6,343.4c0-100.5-80.1-182.3-180.6-182.3c-100.5,0-181.3,77-181.3,181.8h41c0-85.7,63-140.8,140.9-140.8
		s139,63.9,139,141.8c0,76.3-72.3,138.4-139,141v-23.2l-82.4,43.8l82.4,43.8v-23.4C452.4,523.3,527.6,442.3,527.6,343.4z"/>
	<path d="M363.2,326.1l-58.7-58.4c-6.3-6.3-16.7-6.3-23,0c-6.3,6.3-6.4,16.6,0,22.9l57.5,58.4c0,0-0.9,0.1-0.9,0.1v74.3
		c0,7.2,7.1,13,14.3,13c7.2,0,14.3-5.8,14.3-13v-79C366.7,338.5,368.2,331.1,363.2,326.1z"/>
</g>
</svg>
