<?xml version="1.0" encoding="utf-8"?>
<!-- Generator: Adobe Illustrator 16.0.0, SVG Export Plug-In . SVG Version: 6.00 Build 0)  -->
<!DOCTYPE svg PUBLIC "-//W3C//DTD SVG 1.1//EN" "http://www.w3.org/Graphics/SVG/1.1/DTD/svg11.dtd">
<svg version="1.1" id="Слой_1" xmlns="http://www.w3.org/2000/svg" xmlns:xlink="http://www.w3.org/1999/xlink" x="0px" y="0px"
	 width="22px" height="11px" viewBox="0 0 22 11" enable-background="new 0 0 22 11" xml:space="preserve">
<path fill="#0c0c0c" d="M0.966,4.406c0,0,3.412-3.406,4.323-4.314c0.123-0.123,0.32-0.123,0.442,0
	C6.027,0.385,6.543,0.9,6.837,1.195c0.122,0.123,0.122,0.318,0,0.441L4.063,4.406l17.625,0C21.86,4.406,22,4.547,22,4.719
	c0,0.416,0,1.147,0,1.562c0,0.173-0.14,0.313-0.312,0.313H4.063l2.773,2.769c0.122,0.122,0.122,0.319,0,0.442
	c-0.294,0.294-0.811,0.81-1.105,1.104c-0.123,0.122-0.32,0.122-0.442,0L1.122,6.749c0,0-0.671-0.67-1.03-1.028
	c-0.122-0.123-0.122-0.321,0-0.444L0.966,4.406L0.966,4.406L0.966,4.406z"/>
</svg>
