<?xml version="1.0" encoding="utf-8"?>
<!-- Generator: Adobe Illustrator 19.2.1, SVG Export Plug-In . SVG Version: 6.00 Build 0)  -->
<svg version="1.1" id="Layer_1" xmlns="http://www.w3.org/2000/svg" xmlns:xlink="http://www.w3.org/1999/xlink" x="0px" y="0px"
	 viewBox="0 0 93.5 110.5" style="enable-background:new 0 0 93.5 110.5;" xml:space="preserve">
<style type="text/css">
	.st0{fill:#FDB913;}
</style>
<rect x="29.6" y="67.7" transform="matrix(0.7071 -0.7071 0.7071 0.7071 -46.5873 58.4694)" class="st0" width="35.5" height="35.5"/>
<rect class="st0" width="93.5" height="93.5"/>
<g>
	<path d="M23.4,28.3c-0.1,0-0.3,0.1-0.3,0.3v1.4c0,0.1,0.1,0.3,0.3,0.3h1.1l-2,3.8l-2-3.8h0.8c0.3,0,0.3-0.1,0.3-0.4v-1.1
		c0-0.3,0-0.4-0.3-0.4h-5c-0.2,0-0.3,0.1-0.3,0.3v1.4c0,0.1,0.1,0.3,0.3,0.3h1.1l3.4,6.6l0,3.8h-1.6c-0.2,0-0.3,0.1-0.3,0.3v1.3
		c0,0.2,0.2,0.3,0.3,0.3h6c0,0,0.2,0,0.3-0.3v-1.3c0-0.1,0-0.3-0.3-0.3h-1.6v-4.5l3.1-5.9h1.3c0.1,0,0.3-0.1,0.3-0.3v-1.4
		c0-0.1-0.1-0.3-0.3-0.3H23.4z"/>
	<path d="M36,30.2h1.5v1.5c0,0.3,0.1,0.4,0.4,0.4h1.5c0.3,0,0.4-0.1,0.4-0.4v-3c0-0.3-0.1-0.4-0.4-0.4h-9.5c-0.3,0-0.4,0.1-0.4,0.4
		l0,3c0,0.3,0.1,0.4,0.4,0.4l1.5,0c0.3,0,0.4-0.1,0.4-0.4l0-1.5h1.6v10.4h-1.6c-0.3,0-0.3,0.3-0.3,0.3v1.4c0,0.2,0.2,0.3,0.3,0.3h6
		c0.2,0,0.3-0.1,0.3-0.3v-1.4c0-0.1,0-0.3-0.3-0.3H36V30.2z"/>
	<path d="M57.5,28.6c-0.1-0.3-0.2-0.3-0.5-0.3h-3.8c-0.1,0-0.3,0.1-0.3,0.3v1.4c0,0.1,0.1,0.3,0.3,0.3h1.4l0,10.4H53
		c-0.2,0-0.3,0.2-0.3,0.3v1.4c0,0.2,0.2,0.3,0.3,0.3h5.6c0.1,0,0.3-0.1,0.3-0.3v-1.4c0,0,0-0.2-0.3-0.3h-1.6V35c0-1,0-1.6,0-2
		c0.6,1.2,0.7,1.5,1.1,2.2l3.4,7c0.1,0.3,0.2,0.3,0.5,0.3h1.8c0.4,0,0.4-0.1,0.4-0.4V30.2h1.6c0.2,0,0.3-0.2,0.3-0.3v-1.4
		c0-0.1-0.1-0.3-0.3-0.3h-5.6c-0.2,0-0.3,0.1-0.3,0.3v1.4c0,0.1,0.1,0.3,0.3,0.3h1.6l0,5.1c0,0.7,0,0.8,0,2.3
		c-0.4-0.8-0.8-1.6-1.2-2.6L57.5,28.6z"/>
	<path d="M74.1,40.3c-0.5,0.2-1,0.3-1.5,0.3c-1,0-2-0.5-2.4-1.2c-0.4-0.8-0.7-2.3-0.7-4.1c0-1.9,0.3-3.4,0.9-4.3
		c0.4-0.6,1.4-0.9,2.2-0.9c0.5,0,0.8,0.1,1.4,0.3v1.4c0,0.3,0.1,0.4,0.4,0.4H76c0.3,0,0.4-0.1,0.4-0.4v-2.5c0-0.3-0.1-0.4-0.3-0.5
		c-0.9-0.6-2.2-0.9-3.5-0.9c-3.7,0-5.6,2.6-5.6,7.5c0,5,1.8,7.5,5.5,7.5c1.5,0,2.9-0.4,3.9-1c0.3-0.2,0.3-0.3,0.3-0.6v-4.5h0.6
		c0.1,0,0.3-0.1,0.3-0.3v-1.5c0-0.1-0.1-0.3-0.3-0.3h-5.1c-0.2,0-0.3,0.1-0.3,0.3v1.5c0,0.1,0.1,0.3,0.3,0.3h2L74.1,40.3z"/>
	<path d="M46.1,30.1c1.6,0,2.5,1.7,2.5,5.3c0,3.5-1,5.3-2.5,5.3c-1.5,0-2.5-1.8-2.5-5.3C43.6,32,44.6,30.1,46.1,30.1 M46.2,27.9
		c-1.4,0-2.5,0.4-3.5,1.3c-1.3,1.3-1.9,3.1-1.9,6.2c0,5.1,1.7,7.6,5.1,7.6c3.5,0,5.3-2.6,5.3-7.7c0-2.7-0.5-4.7-1.6-5.9
		C48.9,28.5,47.5,27.9,46.2,27.9"/>
	<path d="M16.3,45.7h61c0.2,0,0.2,0.1,0.3,0.3v1.3c0,0.1-0.1,0.3-0.3,0.3h-61c-0.1,0-0.3-0.1-0.3-0.3V46
		C16,45.8,16.1,45.7,16.3,45.7"/>
	<g>
		<path d="M29.6,53.1L29.4,53c-0.3-0.1-0.8-0.2-1.2-0.2c-1.5,0-2,0.8-2,1.6c0,1.2,1,1.5,2.2,2.1c0.4,0.2,1.4,0.7,2.1,1.2
			c1.4,1,1.8,2.4,1.8,3.5c0,0.8-0.2,2.1-1.2,3.1c-0.7,0.7-1.7,1.3-3.5,1.3c-1,0-4.2-0.4-4.2-1.4V61c0-0.1-0.1-0.4,0.4-0.4h1.6
			c0.4,0,0.4,0.2,0.4,0.4V63l0.3,0.1c0.3,0.1,1,0.3,1.7,0.3c1.8,0,1.9-1.4,1.9-1.9c0-1.2-0.7-1.7-2.4-2.4c-1-0.4-2.2-1-2.9-1.7
			c-0.6-0.6-0.8-1.4-0.8-2.5c0-2.7,1.7-4.3,4.6-4.3c1.9,0,3.8,0.7,3.8,1.4v2.8c0,0.4-0.3,0.4-0.4,0.4H30c-0.4,0-0.4-0.2-0.4-0.4
			V53.1z"/>
		<path d="M46.5,64.8c0,0.5-0.3,0.4-0.4,0.4h-4.9c-0.2,0-0.4,0.1-0.4-0.4v-1.1c0-0.5,0.3-0.4,0.4-0.4h1V59h-4v4.3h1
			c0.2,0,0.4-0.1,0.4,0.4v1.1c0,0.5-0.3,0.4-0.4,0.4h-4.9c-0.2,0-0.4,0.1-0.4-0.4v-1.1c0-0.5,0.3-0.4,0.4-0.4h1.1V52.9h-1.1
			c-0.2,0-0.4,0.1-0.4-0.4v-1.1c0-0.5,0.3-0.4,0.4-0.4h4.9c0.2,0,0.4-0.1,0.4,0.4v1.1c0,0.5-0.3,0.4-0.4,0.4h-1v3.8h4v-3.8h-1
			c-0.2,0-0.4,0.1-0.4-0.4v-1.1c0-0.5,0.3-0.4,0.4-0.4h4.9c0.2,0,0.4-0.1,0.4,0.4v1.1c0,0.5-0.3,0.4-0.4,0.4H45v10.3h1.1
			c0.2,0,0.4-0.1,0.4,0.4V64.8z"/>
		<path d="M48.4,58.1c0-1.5,0.1-7.6,5.2-7.6c5.1,0,5.2,6.1,5.2,7.6c0,1.5-0.1,7.5-5.2,7.5C48.5,65.6,48.4,59.6,48.4,58.1z
			 M55.8,58.1c0-1.8-0.1-5.4-2.2-5.4c-2,0-2.2,3.3-2.2,5.4c0,1.8,0.1,5.3,2.2,5.3C55.7,63.4,55.8,59.9,55.8,58.1z"/>
		<path d="M66.8,64.8c0,0.5-0.3,0.4-0.4,0.4h-5.3c-0.2,0-0.4,0.1-0.4-0.4v-1.1c0-0.5,0.3-0.4,0.4-0.4h1.1V52.9h-1.1
			c-0.2,0-0.4,0.1-0.4-0.4v-1.1c0-0.5,0.3-0.4,0.4-0.4H66c1.6,0,4.9-0.1,4.9,3.9c0,2.8-1.9,4.7-4.8,4.7H65v3.7h1.4
			c0.2,0,0.4-0.1,0.4,0.4V64.8z M65.7,57.3c1.1,0,2.4-0.2,2.4-2.3c0-1.8-1.1-1.9-2.2-1.9H65v4.2H65.7z"/>
	</g>
</g>
</svg>
