<svg xmlns="http://www.w3.org/2000/svg" xmlns:xlink="http://www.w3.org/1999/xlink" preserveAspectRatio="xMidYMid" width="50" height="43" viewBox="0 0 50 43">
  <defs>
    <style>
      .cls-1 {
        fill: #fdb813;
        fill-rule: evenodd;
      }
    </style>
  </defs>
  <path d="M48.625,33.289 C49.383,33.289 50.000,33.909 50.000,34.672 L50.000,36.442 C50.000,37.204 49.383,37.824 48.625,37.824 L44.944,37.824 L44.944,38.060 C44.944,40.784 42.740,43.000 40.030,43.000 C37.321,43.000 35.116,40.785 35.116,38.060 L35.116,37.824 L29.914,37.824 L29.914,38.060 C29.914,40.784 27.710,43.000 25.000,43.000 C22.290,43.000 20.086,40.785 20.086,38.060 L20.086,37.824 L14.884,37.824 L14.884,38.060 C14.884,40.784 12.680,43.000 9.970,43.000 C7.260,43.000 5.056,40.785 5.056,38.060 L5.056,37.824 L1.375,37.824 C0.617,37.824 -0.000,37.204 -0.000,36.442 L-0.000,34.672 C-0.000,33.909 0.617,33.289 1.375,33.289 L5.056,33.289 L5.056,20.064 L1.375,20.064 C0.617,20.064 -0.000,19.444 -0.000,18.682 L-0.000,16.912 C-0.000,16.150 0.617,15.529 1.375,15.529 L5.056,15.529 L5.056,14.672 C5.056,11.947 7.260,9.732 9.970,9.732 C12.680,9.732 14.884,11.947 14.884,14.672 L14.884,15.529 L20.086,15.529 L20.086,14.672 C20.086,11.947 22.290,9.732 25.000,9.732 C27.710,9.732 29.914,11.947 29.914,14.672 L29.914,15.529 L35.116,15.529 L35.116,14.672 C35.116,11.947 37.321,9.732 40.030,9.732 C42.740,9.732 44.944,11.947 44.944,14.672 L44.944,15.529 L48.625,15.529 C49.383,15.529 50.000,16.150 50.000,16.912 L50.000,18.682 C50.000,19.444 49.383,20.064 48.625,20.064 L44.944,20.064 L44.944,33.289 L48.625,33.289 ZM44.944,36.123 L48.308,36.123 L48.308,34.990 L44.944,34.990 L44.944,36.123 ZM5.056,17.230 L1.693,17.230 L1.693,18.363 L5.056,18.363 L5.056,17.230 ZM5.056,34.990 L1.693,34.990 L1.693,36.123 L5.056,36.123 L5.056,34.990 ZM9.125,11.546 C7.757,11.920 6.749,13.180 6.749,14.672 L6.749,16.380 L6.749,19.214 L6.749,34.140 L6.749,36.974 L6.749,38.060 C6.749,39.552 7.757,40.811 9.125,41.186 L9.125,11.546 ZM13.192,36.974 L13.192,34.140 L13.192,19.214 L13.192,16.380 L13.192,14.672 C13.192,13.180 12.184,11.921 10.817,11.546 L10.817,41.186 C12.184,40.811 13.192,39.552 13.192,38.060 L13.192,36.974 ZM20.086,17.230 L14.884,17.230 L14.884,18.363 L20.086,18.363 L20.086,17.230 ZM20.087,20.064 L14.884,20.064 L14.884,33.289 L20.087,33.289 L20.087,20.064 ZM20.087,34.990 L14.884,34.990 L14.884,36.123 L20.087,36.123 L20.087,34.990 ZM24.154,11.546 C22.786,11.920 21.779,13.180 21.779,14.672 L21.779,16.380 L21.779,19.214 L21.779,34.140 L21.779,36.974 L21.779,38.060 C21.779,39.552 22.786,40.811 24.154,41.186 L24.154,11.546 ZM28.222,36.974 L28.222,34.140 L28.222,19.214 L28.222,16.380 L28.222,14.672 C28.222,13.180 27.214,11.921 25.846,11.546 L25.846,41.186 C27.214,40.812 28.222,39.552 28.222,38.060 L28.222,36.974 ZM35.116,17.230 L29.914,17.230 L29.914,18.363 L35.116,18.363 L35.116,17.230 ZM35.116,20.064 L29.914,20.064 L29.914,33.289 L35.116,33.289 L35.116,20.064 ZM35.116,34.990 L29.914,34.990 L29.914,36.123 L35.116,36.123 L35.116,34.990 ZM39.184,11.546 C37.816,11.920 36.808,13.180 36.808,14.672 L36.808,16.380 L36.808,19.214 L36.808,34.140 L36.808,36.974 L36.808,38.060 C36.808,39.552 37.816,40.811 39.184,41.186 L39.184,11.546 ZM43.252,36.974 L43.252,34.140 L43.252,19.214 L43.252,16.380 L43.252,14.672 C43.252,13.180 42.244,11.921 40.877,11.546 L40.877,41.186 C42.244,40.811 43.252,39.552 43.252,38.060 L43.252,36.974 ZM48.308,18.363 L48.308,17.230 L44.944,17.230 L44.944,18.363 L48.308,18.363 ZM41.355,2.424 C41.198,2.535 41.141,2.641 41.141,2.704 C41.141,2.766 41.198,2.873 41.355,2.984 C41.952,3.402 42.295,4.012 42.295,4.658 C42.295,5.304 41.952,5.915 41.355,6.333 L40.094,7.218 C39.946,7.322 39.778,7.371 39.610,7.371 C39.343,7.371 39.080,7.244 38.915,7.007 C38.648,6.623 38.742,6.092 39.125,5.824 L40.387,4.938 C40.545,4.827 40.602,4.721 40.602,4.658 C40.602,4.596 40.545,4.490 40.387,4.379 C39.790,3.960 39.448,3.350 39.448,2.704 C39.448,2.058 39.790,1.447 40.387,1.029 L41.638,0.151 C42.021,-0.117 42.548,-0.023 42.816,0.362 C43.084,0.747 42.990,1.278 42.607,1.546 L41.355,2.424 ZM24.972,2.424 C24.813,2.535 24.756,2.642 24.756,2.704 C24.756,2.766 24.813,2.872 24.972,2.983 C25.569,3.402 25.910,4.012 25.910,4.658 C25.910,5.305 25.569,5.915 24.972,6.333 L23.710,7.218 C23.563,7.322 23.394,7.371 23.227,7.371 C22.959,7.371 22.696,7.244 22.532,7.007 C22.264,6.623 22.358,6.092 22.741,5.824 L24.003,4.938 C24.161,4.827 24.218,4.721 24.218,4.658 C24.218,4.596 24.161,4.490 24.003,4.379 C23.406,3.960 23.064,3.350 23.064,2.704 C23.064,2.058 23.406,1.447 24.003,1.029 L25.254,0.151 C25.637,-0.117 26.164,-0.023 26.433,0.362 C26.700,0.747 26.606,1.278 26.223,1.546 L24.972,2.424 ZM8.588,2.424 C8.429,2.535 8.372,2.642 8.372,2.704 C8.372,2.766 8.429,2.872 8.588,2.983 C9.184,3.402 9.526,4.012 9.526,4.658 C9.526,5.305 9.184,5.915 8.588,6.333 L7.326,7.218 C7.178,7.322 7.010,7.371 6.842,7.371 C6.575,7.371 6.312,7.244 6.147,7.007 C5.880,6.623 5.974,6.092 6.357,5.824 L7.619,4.938 C7.777,4.827 7.834,4.721 7.834,4.658 C7.834,4.596 7.777,4.490 7.619,4.379 C7.022,3.960 6.680,3.350 6.680,2.704 C6.680,2.058 7.022,1.447 7.619,1.029 L8.870,0.151 C9.254,-0.117 9.780,-0.023 10.048,0.362 C10.316,0.747 10.222,1.278 9.839,1.546 L8.588,2.424 Z" class="cls-1"/>
</svg>
