<svg xmlns="http://www.w3.org/2000/svg" xmlns:xlink="http://www.w3.org/1999/xlink" preserveAspectRatio="xMidYMid" width="29" height="54" viewBox="0 0 29 54">
  <defs>
    <style>
      .cls-1 {
        fill: #fdb813;
        fill-rule: evenodd;
      }
    </style>
  </defs>
  <path d="M27.067,24.576 L27.067,46.781 C28.165,47.382 29.000,48.520 29.000,50.142 C29.000,52.648 27.008,54.000 25.133,54.000 L3.867,54.000 C1.992,54.000 -0.000,52.648 -0.000,50.143 C-0.000,48.520 0.835,47.382 1.933,46.781 L1.933,36.148 C0.835,35.547 -0.000,34.408 -0.000,32.786 C-0.000,28.554 4.437,24.955 8.558,23.658 C8.053,23.038 7.733,22.218 7.733,21.214 C7.733,18.709 9.725,17.357 11.600,17.357 L11.600,13.500 C11.600,12.435 12.466,11.571 13.533,11.571 L14.531,11.571 C14.531,11.506 14.503,11.445 14.510,11.379 L14.684,9.643 L14.500,9.643 C13.968,9.643 13.533,9.209 13.533,8.678 C13.533,8.148 13.968,7.714 14.500,7.714 L14.877,7.714 L15.476,1.737 C15.575,0.751 16.407,-0.000 17.400,-0.000 L19.333,-0.000 C20.327,-0.000 21.158,0.751 21.257,1.737 L21.856,7.714 L22.233,7.714 C22.765,7.714 23.200,8.148 23.200,8.678 C23.200,9.209 22.765,9.643 22.233,9.643 L22.050,9.643 L22.224,11.379 C22.230,11.445 22.203,11.506 22.203,11.571 L23.200,11.571 C24.268,11.571 25.133,12.435 25.133,13.500 L25.133,17.357 C27.008,17.357 29.000,18.709 29.000,21.214 C29.000,22.836 28.165,23.975 27.067,24.576 ZM19.333,1.928 L17.400,1.928 L16.820,7.714 L19.913,7.714 L19.333,1.928 ZM20.107,9.643 L16.627,9.643 L16.433,11.571 L20.300,11.571 L20.107,9.643 ZM23.200,13.500 L20.300,13.500 L16.433,13.500 L13.533,13.500 L13.533,17.357 L15.467,17.357 L15.467,16.393 C15.467,15.862 15.902,15.428 16.433,15.428 C16.965,15.428 17.400,15.862 17.400,16.393 L17.400,17.357 L19.333,17.357 L19.333,16.393 C19.333,15.862 19.768,15.428 20.300,15.428 C20.832,15.428 21.267,15.862 21.267,16.393 L21.267,17.357 L23.200,17.357 L23.200,13.500 ZM25.133,19.286 L23.200,19.286 L13.533,19.286 L11.600,19.286 C11.600,19.286 9.667,19.286 9.667,21.214 C9.667,23.143 11.600,23.143 11.600,23.143 L11.600,25.071 C7.733,25.071 1.933,28.929 1.933,32.786 C1.933,34.714 3.867,34.714 3.867,34.714 L3.867,48.214 C3.867,48.214 1.933,48.214 1.933,50.143 C1.933,52.071 3.867,52.071 3.867,52.071 L25.133,52.071 C25.133,52.071 27.067,52.071 27.067,50.142 C27.067,48.215 25.136,48.214 25.133,48.214 L25.133,23.143 C25.133,23.143 27.067,23.143 27.067,21.214 C27.067,19.286 25.133,19.286 25.133,19.286 ZM21.267,48.214 L7.733,48.214 C6.666,48.214 5.800,47.351 5.800,46.286 C5.800,36.041 12.015,25.071 21.267,25.071 C22.334,25.071 23.200,25.935 23.200,27.000 L23.200,46.286 C23.200,47.351 22.334,48.214 21.267,48.214 ZM21.267,27.000 C13.533,27.000 7.733,36.643 7.733,46.286 L21.267,46.286 L21.267,27.000 Z" class="cls-1"/>
</svg>
