<?xml version="1.0" encoding="utf-8"?>
<!-- Generator: Adobe Illustrator 19.2.1, SVG Export Plug-In . SVG Version: 6.00 Build 0)  -->
<svg version="1.1" id="Layer_1" xmlns="http://www.w3.org/2000/svg" xmlns:xlink="http://www.w3.org/1999/xlink" x="0px" y="0px"
	 viewBox="195.9 79.2 804.3 797.1" style="enable-background:new 195.9 79.2 804.3 797.1;" xml:space="preserve">
<style type="text/css">
	.st0{display:none;}
	.st1{display:inline;}
	.st2{fill:#BBBBBB;stroke:#000000;stroke-width:4;stroke-linecap:round;stroke-linejoin:round;stroke-miterlimit:10;}
	
		.st3{display:inline;fill:#BBBBBB;stroke:#000000;stroke-width:4;stroke-linecap:round;stroke-linejoin:round;stroke-miterlimit:10;}
	.st4{fill:#FDB813;}
</style>
<g class="st0">
	<g class="st1">
		<path class="st2" d="M915.3,341c0-100-81-181-181-181c-75.2,0-142.9,61.9-162.9,190.5c-20,172.4-139.1,158.1-172.4,181
			c-33.3,22.9-36.2,53.3-36.2,81.9c0,49.5,41,90.5,90.5,90.5c62.9,0,258.1-81.9,343.8-154.3C882.9,477.2,915.3,418.1,915.3,341z"/>
		<path class="st2" d="M653.4,322.9c0-55.2,44.8-100,100-100"/>
		<circle class="st2" cx="758.1" cy="332.4" r="48.6"/>
		<path class="st2" d="M372.4,653.4c0,0-92.4,11.4-87.6,68.6c12.4,150.5,248.6-7.6,196.2,135.2"/>
		<line class="st2" x1="321" y1="600" x2="363.8" y2="600"/>
		<line class="st2" x1="418.1" y1="485.7" x2="436.2" y2="513.4"/>
		<line class="st2" x1="472.4" y1="459.1" x2="499.1" y2="485.7"/>
		<line class="st2" x1="343.8" y1="526.7" x2="372.4" y2="540"/>
		<line class="st2" x1="490.5" y1="712.4" x2="494.3" y2="743.9"/>
		<line class="st2" x1="418.1" y1="702.9" x2="400" y2="726.7"/>
		<line class="st2" x1="553.4" y1="694.3" x2="563.8" y2="730.5"/>
		<line class="st2" x1="607.7" y1="658.1" x2="625.8" y2="694.3"/>
		<line class="st2" x1="662.9" y1="633.4" x2="679.1" y2="674.3"/>
		<line class="st2" x1="716.2" y1="603.8" x2="734.3" y2="640"/>
		<line class="st2" x1="771.5" y1="576.2" x2="788.6" y2="603.8"/>
		<line class="st2" x1="824.8" y1="531.5" x2="842.9" y2="567.7"/>
		<line class="st2" x1="870.5" y1="485.7" x2="906.7" y2="521.9"/>
		<line class="st2" x1="906.7" y1="422.9" x2="951.5" y2="449.6"/>
		<line class="st2" x1="924.8" y1="350.5" x2="973.4" y2="360"/>
		<line class="st2" x1="906.7" y1="278.1" x2="957.2" y2="265.7"/>
		<line class="st2" x1="879.1" y1="214.3" x2="936.2" y2="178.1"/>
		<line class="st2" x1="806.7" y1="168.6" x2="849.6" y2="99.1"/>
		<line class="st2" x1="508.6" y1="395.3" x2="553.4" y2="421"/>
		<line class="st2" x1="535.3" y1="304.8" x2="574.3" y2="327.6"/>
		<line class="st2" x1="571.5" y1="223.8" x2="600" y2="250.5"/>
		<line class="st2" x1="625.8" y1="150.5" x2="643.8" y2="186.7"/>
		<line class="st2" x1="716.2" y1="105.7" x2="725.8" y2="160"/>
	</g>
	<path class="st3" d="M309.5,197.2c14.3-44.8,61.9-69.5,106.7-55.2"/>
	<path class="st3" d="M241.9,463.8c-26.7-15.2-35.2-49.5-20-76.2"/>
	<path class="st3" d="M330.5,328.6c21.9,2.9,37.1,21.9,35.2,43.8"/>
	<path class="st3" d="M871.5,805.8c-25.7-21-29.5-58.1-9.5-83.8"/>
	<path class="st3" d="M713.4,815.3c-25.7,5.7-52.4-10.5-58.1-36.2"/>
	<path class="st3" d="M925.8,615.3c21-9.5,45.7-1,55.2,20"/>
</g>
<g>
	<g>
		<path class="st4" d="M454.3,721.9c-60,0-109.5-49.5-109.5-109.5c0-21.9,0-66.7,44.8-97.1c9.5-6.7,22.9-10.5,38.1-14.3
			c47.6-13.3,111.4-31.4,125.7-152.4C576.2,195.3,661.9,141,734.3,141c110.5,0,200,89.5,200,200c0,84.8-35.2,147.6-124.8,222.9
			C721,639.1,521.9,721.9,454.3,721.9z M734.3,179.1c-73.3,0-127.6,64.8-143.8,174.3C574.3,500,484.8,524.8,437.2,538.1
			c-11.4,2.9-21.9,5.7-26.7,9.5c-23.8,16.2-27.6,36.2-27.6,65.7c0,39.1,32.4,71.4,71.4,71.4c53.3,0,245.7-77.1,331.4-149.5
			c81-67.6,110.5-120,110.5-193.3C896.2,251.4,823.9,179.1,734.3,179.1z"/>
	</g>
	<g>
		<path class="st4" d="M653.4,341.9c-10.5,0-19-8.6-19-19c0-65.7,53.3-119.1,119.1-119.1c10.5,0,19,8.6,19,19c0,10.5-8.6,19-19,19
			c-44.8,0-81,36.2-81,81C672.4,333.4,663.9,341.9,653.4,341.9z"/>
	</g>
	<g>
		<path class="st4" d="M758.1,399.1c-37.1,0-67.6-30.5-67.6-67.6c0-37.1,30.5-67.6,67.6-67.6c37.1,0,67.6,30.5,67.6,67.6
			C825.8,368.6,795.3,399.1,758.1,399.1z M758.1,302.9c-16.2,0-29.5,13.3-29.5,29.5s13.3,29.5,29.5,29.5s29.5-13.3,29.5-29.5
			S774.3,302.9,758.1,302.9z"/>
	</g>
	<g>
		<path class="st4" d="M481,876.2c-1.9,0-4.8,0-6.7-1c-9.5-3.8-15.2-14.3-11.4-24.8c9.5-26.7,5.7-34.3,4.8-34.3
			c-5.7-7.6-35.2-5.7-57.1-4.8c-55.2,2.9-138.1,6.7-145.7-88.6c-4.8-59.1,62.9-83.8,103.8-88.6c10.5-1,20,5.7,21,16.2
			c1,10.5-5.7,20-16.2,21c-1,0-74.3,10.5-71.4,47.6c3.8,52.4,37.1,57.1,105.7,53.3c37.1-1.9,71.4-3.8,89.5,20
			c15.2,21,7.6,50.5,0,70.5C496.2,871.5,488.6,876.2,481,876.2z"/>
	</g>
	<g>
		<path class="st4" d="M321,619.1c-10.5,0-19-8.6-19-19c0-10.5,8.6-19,19-19h41.9l0,0c10.5,0,19,8.6,19,19c0,10.5-8.6,19-19,19H321
			L321,619.1z"/>
	</g>
	<g>
		<path class="st4" d="M436.2,532.4c-5.7,0-12.4-2.9-16.2-8.6l-18.1-27.6c-5.7-8.6-3.8-21,5.7-26.7c8.6-5.7,21-3.8,26.7,5.7
			l18.1,27.6c5.7,8.6,3.8,21-5.7,26.7C442.9,531.5,439.1,532.4,436.2,532.4z"/>
	</g>
	<g>
		<path class="st4" d="M499.1,504.8c-4.8,0-9.5-1.9-13.3-5.7l-27.6-27.6c-7.6-7.6-7.6-19,0-26.7c7.6-7.6,19-7.6,26.7,0l27.6,27.6
			c7.6,7.6,7.6,19,0,26.7C508.6,502.9,503.8,504.8,499.1,504.8z"/>
	</g>
	<g>
		<path class="st4" d="M372.4,559.1c-2.9,0-5.7-1-8.6-1.9l-28.6-13.3c-9.5-4.8-13.3-16.2-9.5-25.7c4.8-9.5,16.2-13.3,25.7-9.5
			l28.6,13.3c9.5,4.8,13.3,16.2,9.5,25.7C386.7,555.3,380,559.1,372.4,559.1z"/>
	</g>
	<g>
		<path class="st4" d="M494.3,762.9c-9.5,0-17.1-6.7-19-16.2l-3.8-32.4c-1.9-10.5,5.7-20,16.2-21.9c10.5-1.9,20,5.7,21.9,16.2
			l4.8,31.4c1.9,10.5-5.7,20-16.2,21.9C496.2,762.9,495.3,762.9,494.3,762.9z"/>
	</g>
	<g>
		<path class="st4" d="M400,745.8c-3.8,0-7.6-1-11.4-3.8c-8.6-6.7-10.5-18.1-3.8-26.7l18.1-23.8c6.7-8.6,18.1-10.5,26.7-3.8
			c8.6,6.7,10.5,18.1,3.8,26.7l-18.1,23.8C411.5,743.9,405.7,745.8,400,745.8z"/>
	</g>
	<g>
		<path class="st4" d="M563.8,749.6c-8.6,0-16.2-5.7-18.1-13.3L535.3,700c-2.9-10.5,2.9-21,13.3-23.8c10.5-2.9,21,2.9,23.8,13.3
			l10.5,36.2c2.9,10.5-2.9,21-13.3,23.8C567.7,748.6,565.7,749.6,563.8,749.6z"/>
	</g>
	<g>
		<path class="st4" d="M625.8,713.4c-6.7,0-13.3-3.8-17.1-10.5l-18.1-36.2c-4.8-9.5-1-21,8.6-25.7c9.5-4.8,21-1,25.7,8.6l18.1,36.2
			c4.8,9.5,1,21-8.6,25.7C631.5,712.4,628.6,713.4,625.8,713.4z"/>
	</g>
	<g>
		<path class="st4" d="M679.1,693.4c-7.6,0-15.2-4.8-18.1-12.4l-16.2-41c-3.8-9.5,1-21,10.5-24.8c9.5-3.8,21,1,24.8,10.5l16.2,41
			c3.8,9.5-1,21-10.5,24.8C682.9,693.4,681,693.4,679.1,693.4z"/>
	</g>
	<g>
		<path class="st4" d="M734.3,659.1c-6.7,0-13.3-3.8-17.1-10.5l-18.1-36.2c-4.8-9.5-1-21,8.6-25.7c9.5-4.8,21-1,25.7,8.6l18.1,36.2
			c4.8,9.5,1,21-8.6,25.7C740,658.1,737.2,659.1,734.3,659.1z"/>
	</g>
	<g>
		<path class="st4" d="M788.6,622.9c-6.7,0-12.4-2.9-16.2-8.6l-17.1-27.6c-5.7-8.6-2.9-21,5.7-26.7c8.6-5.7,21-2.9,26.7,5.7
			l17.1,27.6c5.7,8.6,2.9,21-5.7,26.7C796.2,621.9,792.4,622.9,788.6,622.9z"/>
	</g>
	<g>
		<path class="st4" d="M842.9,586.7c-6.7,0-13.3-3.8-17.1-10.5L807.7,540c-4.8-9.5-1-21,8.6-25.7c9.5-4.8,21-1,25.7,8.6l18.1,36.2
			c4.8,9.5,1,21-8.6,25.7C848.6,585.8,845.8,586.7,842.9,586.7z"/>
	</g>
	<g>
		<path class="st4" d="M906.7,541c-4.8,0-9.5-1.9-13.3-5.7l-36.2-36.2c-7.6-7.6-7.6-19,0-26.7c7.6-7.6,19-7.6,26.7,0l36.2,36.2
			c7.6,7.6,7.6,19,0,26.7C916.2,539.1,911.5,541,906.7,541z"/>
	</g>
	<g>
		<path class="st4" d="M951.5,468.6c-3.8,0-6.7-1-9.5-2.9l-45.7-27.6c-8.6-5.7-12.4-17.1-6.7-25.7c5.7-8.6,17.1-12.4,25.7-6.7
			l45.7,27.6c8.6,5.7,12.4,17.1,6.7,25.7C964.8,465.7,958.2,468.6,951.5,468.6z"/>
	</g>
	<g>
		<path class="st4" d="M973.4,379.1c-1,0-2.9,0-3.8,0l-48.6-9.5c-10.5-1.9-17.1-12.4-15.2-22.9c1.9-10.5,12.4-17.1,22.9-15.2
			l48.6,9.5c10.5,1.9,17.1,12.4,15.2,22.9C990.5,372.4,982.9,379.1,973.4,379.1z"/>
	</g>
	<g>
		<path class="st4" d="M906.7,297.2c-8.6,0-16.2-5.7-18.1-14.3c-2.9-10.5,3.8-21,14.3-22.9l50.5-12.4c10.5-2.9,21,3.8,22.9,14.3
			c2.9,10.5-3.8,21-14.3,22.9l-50.5,12.4C909.6,296.2,907.7,297.2,906.7,297.2z"/>
	</g>
	<g>
		<path class="st4" d="M879.1,233.3c-6.7,0-12.4-2.9-16.2-8.6c-5.7-8.6-2.9-21,5.7-26.7l57.1-36.2c8.6-5.7,21-2.9,26.7,5.7
			c5.7,8.6,2.9,21-5.7,26.7l-57.1,36.2C886.7,232.4,882.9,233.3,879.1,233.3z"/>
	</g>
	<g>
		<path class="st4" d="M806.7,187.6c-3.8,0-6.7-1-9.5-2.9c-8.6-5.7-12.4-17.1-6.7-25.7l41.9-70.5c5.7-8.6,17.1-12.4,25.7-6.7
			c8.6,5.7,12.4,17.1,6.7,25.7l-41.9,70.5C820.1,184.8,813.4,187.6,806.7,187.6z"/>
	</g>
	<g>
		<path class="st4" d="M553.4,440c-2.9,0-6.7-1-9.5-2.9l-45.7-25.7c-9.5-4.8-12.4-17.1-7.6-25.7c4.8-9.5,17.1-12.4,25.7-7.6
			l45.7,25.7c9.5,4.8,12.4,17.1,7.6,25.7C566.7,436.2,560,440,553.4,440z"/>
	</g>
	<g>
		<path class="st4" d="M574.3,346.7c-2.9,0-6.7-1-9.5-2.9l-39-22.9c-9.5-5.7-12.4-17.1-6.7-25.7c5.7-9.5,17.1-12.4,25.7-6.7l39,22.9
			c9.5,5.7,12.4,17.1,6.7,25.7C587.7,342.9,581,346.7,574.3,346.7z"/>
	</g>
	<g>
		<path class="st4" d="M600,269.5c-4.8,0-9.5-1.9-13.3-5.7l-28.6-27.6c-7.6-7.6-7.6-19-1-26.7c7.6-7.6,19-7.6,26.7-1l28.6,27.6
			c7.6,7.6,7.6,19,1,26.7C610.5,267.6,604.8,269.5,600,269.5z"/>
	</g>
	<g>
		<path class="st4" d="M643.8,205.7c-6.7,0-13.3-3.8-17.1-10.5l-18.1-36.2c-4.8-9.5-1-21,8.6-25.7c9.5-4.8,21-1,25.7,8.6l18.1,36.2
			c4.8,9.5,1,21-8.6,25.7C649.6,205.7,646.7,205.7,643.8,205.7z"/>
	</g>
	<g>
		<path class="st4" d="M725.8,179.1c-9.5,0-17.1-6.7-19-16.2l-9.5-54.3c-1.9-10.5,5.7-20,15.2-21.9c10.5-1.9,20,5.7,21.9,15.2
			l9.5,54.3c1.9,10.5-5.7,20-15.2,21.9C727.7,179.1,726.7,179.1,725.8,179.1z"/>
	</g>
	<path class="st4" d="M309.5,216.2c-1.9,0-3.8,0-5.7-1c-10.5-2.9-15.2-14.3-12.4-23.8c17.1-54.3,76.2-84.8,130.5-67.6
		c10.5,2.9,15.2,14.3,12.4,23.8c-2.9,9.5-14.3,15.2-23.8,12.4c-34.3-11.4-72.4,8.6-82.9,42.9C324.8,211.4,317.2,216.2,309.5,216.2z"
		/>
	<path class="st4" d="M241.9,482.9c-2.9,0-6.7-1-9.5-2.9c-35.2-21-46.7-66.7-26.7-101.9c5.7-9.5,17.1-12.4,25.7-6.7
		c9.5,5.7,12.4,17.1,6.7,25.7c-10.5,17.1-4.8,39.1,12.4,49.5c9.5,5.7,12.4,17.1,6.7,25.7C255.3,480,248.6,482.9,241.9,482.9z"/>
	<path class="st4" d="M365.7,391.5c-1,0-1,0-1.9,0c-10.5-1-18.1-10.5-17.1-21c1-11.4-6.7-21.9-18.1-22.9c-10.5-1-18.1-10.5-17.1-21
		c1-10.5,10.5-18.1,21-17.1c15.2,1.9,29.5,9.5,39,21.9c9.5,12.4,14.3,27.6,12.4,42.9C383.8,383.8,375.3,391.5,365.7,391.5z"/>
	<path class="st4" d="M871.5,824.8c-3.8,0-8.6-1-11.4-3.8c-16.2-13.3-26.7-32.4-29.5-52.4c-1.9-21,3.8-41.9,17.1-58.1
		c6.7-8.6,18.1-9.5,26.7-2.9c8.6,6.7,9.5,18.1,2.9,26.7c-6.7,8.6-9.5,19-8.6,29.5c1,10.5,6.7,21,15.2,27.6
		c8.6,6.7,9.5,18.1,2.9,26.7C882.9,822,877.2,824.8,871.5,824.8z"/>
	<path class="st4" d="M701.9,835.3c-30.5,0-59.1-21-65.7-52.4c-1.9-10.5,3.8-20,14.3-22.9c10.5-1.9,20,3.8,22.9,14.3
		c1.9,7.6,6.7,14.3,13.3,18.1c6.7,3.8,14.3,5.7,21.9,3.8c10.5-1.9,20,3.8,22.9,14.3c2.9,10.5-3.8,20-14.3,22.9
		C712.4,834.3,707.7,835.3,701.9,835.3z"/>
	<path class="st4" d="M981,654.3c-6.7,0-14.3-3.8-17.1-10.5c-5.7-11.4-19-16.2-29.5-10.5c-9.5,4.8-21,1-25.7-8.6
		c-4.8-9.5-1-21,8.6-25.7c30.5-14.3,66.7-1.9,81,28.6c4.8,9.5,1,21-8.6,25.7C986.7,653.4,983.9,654.3,981,654.3z"/>
</g>
</svg>
