<svg xmlns="http://www.w3.org/2000/svg" xmlns:xlink="http://www.w3.org/1999/xlink" preserveAspectRatio="xMidYMid" width="42" height="42" viewBox="0 0 42 42">
  <defs>
    <style>
      .cls-1 {
        fill: #fdb813;
        fill-rule: evenodd;
      }
    </style>
  </defs>
  <path d="M40.833,42.000 L31.500,42.000 C30.847,42.000 30.333,41.486 30.333,40.833 L30.333,31.500 C30.333,30.846 30.847,30.333 31.500,30.333 L40.833,30.333 C41.487,30.333 42.000,30.846 42.000,31.500 L42.000,40.833 C42.000,41.486 41.487,42.000 40.833,42.000 ZM39.667,32.667 L32.667,32.667 L32.667,39.667 L39.667,39.667 L39.667,32.667 ZM40.833,26.833 L31.500,26.833 C30.847,26.833 30.333,26.320 30.333,25.667 L30.333,16.333 C30.333,15.680 30.847,15.166 31.500,15.166 L40.833,15.166 C41.487,15.166 42.000,15.680 42.000,16.333 L42.000,25.667 C42.000,26.320 41.487,26.833 40.833,26.833 ZM39.667,17.500 L32.667,17.500 L32.667,24.500 L39.667,24.500 L39.667,17.500 ZM40.833,11.667 L31.500,11.667 C30.847,11.667 30.333,11.153 30.333,10.500 L30.333,1.167 C30.333,0.513 30.847,-0.000 31.500,-0.000 L40.833,-0.000 C41.487,-0.000 42.000,0.513 42.000,1.167 L42.000,10.500 C42.000,11.153 41.487,11.667 40.833,11.667 ZM39.667,2.333 L32.667,2.333 L32.667,9.333 L39.667,9.333 L39.667,2.333 ZM25.667,37.333 L19.133,37.333 L20.627,38.873 C21.093,39.293 21.093,40.040 20.627,40.506 C20.207,40.973 19.460,40.973 18.993,40.506 L15.493,37.007 C15.027,36.587 15.027,35.840 15.493,35.373 L18.993,31.873 C19.413,31.407 20.160,31.407 20.627,31.873 C21.093,32.293 21.093,33.040 20.627,33.507 L19.133,35.000 L25.667,35.000 C26.320,35.000 26.833,35.513 26.833,36.167 C26.833,36.820 26.320,37.333 25.667,37.333 ZM25.667,22.167 L19.133,22.167 L20.627,23.706 C21.093,24.126 21.093,24.873 20.627,25.340 C20.207,25.806 19.460,25.806 18.993,25.340 L15.493,21.840 C15.027,21.420 15.027,20.673 15.493,20.207 L18.993,16.706 C19.413,16.240 20.160,16.240 20.627,16.706 C21.093,17.127 21.093,17.873 20.627,18.340 L19.133,19.833 L25.667,19.833 C26.320,19.833 26.833,20.346 26.833,21.000 C26.833,21.653 26.320,22.167 25.667,22.167 ZM25.667,7.000 L19.133,7.000 L20.627,8.540 C21.093,8.960 21.093,9.706 20.627,10.173 C20.207,10.640 19.460,10.640 18.993,10.173 L15.493,6.673 C15.027,6.253 15.027,5.507 15.493,5.040 L18.993,1.540 C19.413,1.073 20.160,1.073 20.627,1.540 C21.093,1.960 21.093,2.707 20.627,3.173 L19.133,4.667 L25.667,4.667 C26.320,4.667 26.833,5.180 26.833,5.833 C26.833,6.487 26.320,7.000 25.667,7.000 ZM10.500,42.000 L1.167,42.000 C0.513,42.000 -0.000,41.486 -0.000,40.833 L-0.000,1.167 C-0.000,0.513 0.513,-0.000 1.167,-0.000 L10.500,-0.000 C11.153,-0.000 11.667,0.513 11.667,1.167 L11.667,40.833 C11.667,41.486 11.153,42.000 10.500,42.000 ZM9.333,2.333 L2.333,2.333 L2.333,39.667 L9.333,39.667 L9.333,2.333 Z" class="cls-1"/>
</svg>
