<svg xmlns="http://www.w3.org/2000/svg" xmlns:xlink="http://www.w3.org/1999/xlink" preserveAspectRatio="xMidYMid" width="46" height="44" viewBox="0 0 46 44">
  <defs>
    <style>
      .cls-1 {
        fill: #fdb813;
        fill-rule: evenodd;
      }
    </style>
  </defs>
  <path d="M43.755,40.077 C43.422,40.408 42.883,40.408 42.550,40.077 C42.217,39.748 42.217,39.211 42.550,38.881 C43.676,37.761 44.296,36.274 44.296,34.692 C44.296,31.716 42.067,29.270 39.185,28.855 L39.185,30.461 L35.778,27.923 L39.185,25.384 L39.185,27.162 C43.008,27.590 46.000,30.783 46.000,34.692 C46.000,36.726 45.203,38.638 43.755,40.077 ZM40.037,22.000 C39.567,22.000 39.185,21.621 39.185,21.154 L39.185,21.154 L39.185,11.846 L1.704,11.846 L1.704,37.231 L24.704,37.231 C25.174,37.231 25.555,37.610 25.555,38.077 C25.555,38.544 25.174,38.923 24.704,38.923 L24.703,38.923 L1.704,38.923 C0.763,38.923 0.000,38.165 0.000,37.231 L0.000,5.077 C0.000,4.142 0.763,3.385 1.704,3.385 L5.111,3.385 L5.111,2.538 C5.111,1.139 6.258,-0.000 7.667,-0.000 C9.076,-0.000 10.222,1.139 10.222,2.538 L10.222,3.385 L11.926,3.385 L11.926,2.538 C11.926,1.139 13.072,-0.000 14.481,-0.000 C15.891,-0.000 17.037,1.139 17.037,2.538 L17.037,3.385 L23.852,3.385 L23.852,2.538 C23.852,1.139 24.998,-0.000 26.407,-0.000 C27.816,-0.000 28.963,1.139 28.963,2.538 L28.963,3.385 L30.667,3.385 L30.667,2.538 C30.667,1.139 31.813,-0.000 33.222,-0.000 C34.631,-0.000 35.778,1.139 35.778,2.538 L35.778,3.385 L39.185,3.385 C40.126,3.385 40.889,4.142 40.889,5.077 L40.889,21.153 L40.889,21.154 C40.889,21.621 40.507,22.000 40.037,22.000 ZM8.518,2.538 C8.518,2.071 8.137,1.692 7.667,1.692 C7.196,1.692 6.815,2.071 6.815,2.538 L6.815,6.769 L8.518,6.769 L8.518,2.538 ZM15.333,2.538 C15.333,2.071 14.952,1.692 14.481,1.692 C14.011,1.692 13.630,2.071 13.630,2.538 L13.630,6.769 L15.333,6.769 L15.333,2.538 ZM27.259,2.538 C27.259,2.071 26.878,1.692 26.407,1.692 C25.937,1.692 25.555,2.071 25.555,2.538 L25.555,6.769 L27.259,6.769 L27.259,2.538 ZM34.074,2.538 C34.074,2.071 33.693,1.692 33.222,1.692 C32.752,1.692 32.370,2.071 32.370,2.538 L32.370,6.769 L34.074,6.769 L34.074,2.538 ZM39.185,5.077 L35.778,5.077 L35.778,6.769 C35.778,7.704 35.015,8.461 34.074,8.461 L32.370,8.461 C31.430,8.461 30.667,7.704 30.667,6.769 L30.667,5.077 L28.963,5.077 L28.963,6.769 C28.963,7.704 28.200,8.461 27.259,8.461 L25.555,8.461 C24.615,8.461 23.852,7.704 23.852,6.769 L23.852,5.077 L17.037,5.077 L17.037,6.769 C17.037,7.704 16.274,8.461 15.333,8.461 L13.630,8.461 C12.689,8.461 11.926,7.704 11.926,6.769 L11.926,5.077 L10.222,5.077 L10.222,6.769 C10.222,7.704 9.459,8.461 8.518,8.461 L6.815,8.461 C5.874,8.461 5.111,7.704 5.111,6.769 L5.111,5.077 L1.704,5.077 L1.704,10.154 L39.185,10.154 L39.185,5.077 ZM24.704,32.154 L7.667,32.154 C7.196,32.154 6.815,31.775 6.815,31.308 L6.815,17.769 C6.815,17.302 7.196,16.923 7.667,16.923 L33.222,16.923 C33.693,16.923 34.074,17.302 34.074,17.769 L34.074,24.538 C34.074,25.006 33.693,25.384 33.222,25.384 L25.555,25.384 L25.555,31.308 C25.555,31.775 25.174,32.154 24.704,32.154 ZM15.333,25.384 L8.518,25.384 L8.518,30.461 L15.333,30.461 L15.333,25.384 ZM23.852,18.615 L17.037,18.615 L17.037,23.692 L23.852,23.692 L23.852,18.615 ZM23.852,25.384 L17.037,25.384 L17.037,30.461 L23.852,30.461 L23.852,25.384 ZM32.370,23.692 L32.370,18.615 L25.555,18.615 L25.555,23.692 L32.370,23.692 ZM34.116,29.307 C34.449,29.637 34.449,30.173 34.116,30.504 C32.991,31.623 32.370,33.111 32.370,34.692 C32.370,37.668 34.599,40.115 37.481,40.530 L37.481,38.923 L40.889,41.461 L37.481,44.000 L37.481,42.222 C33.659,41.795 30.667,38.602 30.667,34.692 C30.667,32.659 31.464,30.746 32.912,29.307 C33.245,28.976 33.784,28.976 34.116,29.307 Z" class="cls-1"/>
</svg>
