<?xml version="1.0" encoding="utf-8"?>
<!-- Generator: Adobe Illustrator 19.2.1, SVG Export Plug-In . SVG Version: 6.00 Build 0)  -->
<svg version="1.1" id="Isolation_Mode" xmlns="http://www.w3.org/2000/svg" xmlns:xlink="http://www.w3.org/1999/xlink" x="0px"
	 y="0px" viewBox="108.5 258.3 836.6 701.8" style="enable-background:new 108.5 258.3 836.6 701.8;" xml:space="preserve">
<style type="text/css">
	.st0{fill:#FDB813;stroke:#FDB813;stroke-width:7;stroke-miterlimit:10;}
</style>
<path class="st0" d="M509.1,655.2v-13.3h-20c-9.5,0-17.1-7.6-17.1-17.1c0-9.5,7.6-17.1,17.1-17.1h51.4c7.6,0,14.3-6.7,14.3-14.3
	c0-7.6-6.7-14.3-14.3-14.3H512c-26.7,0-48.6-21.9-48.6-48.6c0-25.7,20-47.6,45.7-48.6v-12.4c0-9.5,7.6-17.1,17.1-17.1
	c9.5,0,17.1,7.6,17.1,17.1v12.4h19c9.5,0,17.1,7.6,17.1,17.1c0,9.5-7.6,17.1-17.1,17.1H512c-7.6,0-14.3,6.7-14.3,14.3
	c0,7.6,6.7,14.3,14.3,14.3h28.6c26.7,0,48.6,21.9,48.6,48.6c0,25.7-20,47.6-45.7,48.6v13.3c0,9.5-7.6,17.1-17.1,17.1
	C516.8,672.3,509.1,664.7,509.1,655.2z M696.8,956.6c9.5,0,17.1-7.6,17.1-17.1c0-9.5-7.6-17.1-17.1-17.1H544.4v-62.4
	c0-9.5-7.6-17.1-17.1-17.1s-17.1,7.6-17.1,17.1v61.4H357.7c-9.5,0-17.1,7.6-17.1,17.1c0,9.5,7.6,17.1,17.1,17.1h339.1V956.6z
	 M941.6,817.1V303.7c0-23.8-19-41.9-41.9-41.9H154.8c-23.8,0-41.9,19-41.9,41.9v436.2c0,9.5,7.6,17.1,17.1,17.1s17.1-7.6,17.1-17.1
	V303.7c0-3.8,3.8-7.6,7.6-7.6h744.8c3.8,0,7.6,3.8,7.6,7.6v513.4c0,3.8-3.8,7.6-7.6,7.6H154.8c-3.8,0-7.6-3.8-7.6-7.6v-84.8H802
	c9.5,0,17.1-7.6,17.1-17.1c0-9.5-7.6-17.1-17.1-17.1H129.1c-9.5,0-17.1,7.6-17.1,17.1c0,1,0,2.9,0,3.8v98.1
	c0,23.8,19,41.9,41.9,41.9h744.8C922.5,859.9,941.6,840.9,941.6,817.1z M501.5,777.1c0,13.3,11.4,24.8,24.8,24.8
	c13.3,0,24.8-11.4,24.8-24.8s-11.4-24.8-24.8-24.8C513,752.3,501.5,763.7,501.5,777.1z M661.5,672.3c2.9,1.9,6.7,2.9,9.5,2.9
	c5.7,0,11.4-2.9,14.3-7.6c21-31.4,32.4-67.6,32.4-105.7c0-104.8-85.7-190.5-190.5-190.5c-104.8,0-190.5,85.7-190.5,190.5
	c0,36.2,10.5,72.4,30.5,102.9c4.8,7.6,16.2,10.5,23.8,5.7c7.6-4.8,10.5-16.2,5.7-23.8c-16.2-24.8-24.8-54.3-24.8-83.8
	c0-85.7,69.5-156.2,156.2-156.2c85.7,0,156.2,69.5,156.2,156.2c0,30.5-8.6,61-25.7,86.7C651.1,656.1,653,666.6,661.5,672.3z"/>
</svg>
