<svg xmlns="http://www.w3.org/2000/svg" xmlns:xlink="http://www.w3.org/1999/xlink" preserveAspectRatio="xMidYMid" width="48" height="36" viewBox="0 0 48 36">
  <defs>
    <style>
      .cls-1 {
        fill: #fdb813;
        fill-rule: evenodd;
      }
    </style>
  </defs>
  <path d="M16.211,22.292 C16.211,21.778 16.628,21.361 17.142,21.361 L17.244,21.361 L22.932,21.361 L23.034,21.361 C23.548,21.361 23.965,21.778 23.965,22.292 C23.965,22.806 23.548,23.223 23.034,23.223 L22.932,23.223 L17.244,23.223 L17.142,23.223 C16.628,23.223 16.211,22.806 16.211,22.292 L16.211,22.292 ZM6.466,22.292 L6.466,22.292 C6.466,21.778 6.883,21.361 7.397,21.361 L7.499,21.361 L13.187,21.361 L13.289,21.361 C13.804,21.361 14.221,21.778 14.221,22.292 C14.221,22.806 13.804,23.223 13.289,23.223 L13.187,23.223 L7.499,23.223 L7.397,23.223 C6.883,23.223 6.466,22.806 6.466,22.292 L6.466,22.292 ZM9.865,5.105 C10.952,5.105 11.919,5.616 12.541,6.410 C13.163,5.616 14.130,5.105 15.217,5.105 C17.095,5.105 18.616,6.627 18.616,8.504 C18.616,10.381 17.095,11.903 15.217,11.903 C14.130,11.903 13.163,11.392 12.541,10.598 C11.919,11.392 10.952,11.903 9.865,11.903 C7.988,11.903 6.466,10.381 6.466,8.504 C6.466,6.627 7.988,5.105 9.865,5.105 L9.865,5.105 ZM32.441,18.250 C31.777,18.250 31.239,17.712 31.239,17.048 L31.239,16.438 C31.239,15.775 31.777,15.237 32.441,15.237 C33.105,15.237 33.642,15.775 33.642,16.438 L33.642,17.048 C33.642,17.712 33.105,18.250 32.441,18.250 L32.441,18.250 ZM29.193,18.250 C28.529,18.250 27.991,17.712 27.991,17.048 L27.991,16.438 C27.991,15.775 28.529,15.237 29.193,15.237 C29.856,15.237 30.394,15.775 30.394,16.438 L30.394,17.048 C30.394,17.712 29.856,18.250 29.193,18.250 L29.193,18.250 ZM25.944,18.250 C25.281,18.250 24.743,17.712 24.743,17.048 L24.743,16.438 C24.743,15.775 25.281,15.237 25.944,15.237 C26.608,15.237 27.146,15.775 27.146,16.438 L27.146,17.048 C27.146,17.712 26.608,18.250 25.944,18.250 L25.944,18.250 ZM22.696,18.250 C22.032,18.250 21.495,17.712 21.495,17.048 L21.495,16.438 C21.495,15.775 22.032,15.237 22.696,15.237 C23.360,15.237 23.898,15.775 23.898,16.438 L23.898,17.048 C23.898,17.712 23.360,18.250 22.696,18.250 L22.696,18.250 ZM16.211,17.048 L16.211,16.438 C16.211,15.775 16.749,15.237 17.412,15.237 C18.076,15.237 18.614,15.775 18.614,16.438 L18.614,17.048 C18.614,17.712 18.076,18.250 17.412,18.250 C16.749,18.250 16.211,17.712 16.211,17.048 L16.211,17.048 ZM12.962,17.048 L12.962,16.438 C12.962,15.775 13.500,15.237 14.164,15.237 C14.828,15.237 15.366,15.775 15.366,16.438 L15.366,17.048 C15.366,17.712 14.828,18.250 14.164,18.250 C13.500,18.250 12.962,17.712 12.962,17.048 L12.962,17.048 ZM10.916,18.250 C10.252,18.250 9.714,17.712 9.714,17.048 L9.714,16.438 C9.714,15.775 10.252,15.237 10.916,15.237 C11.579,15.237 12.117,15.775 12.117,16.438 L12.117,17.048 C12.117,17.712 11.579,18.250 10.916,18.250 L10.916,18.250 ZM6.466,16.438 C6.466,15.775 7.004,15.237 7.668,15.237 C8.331,15.237 8.869,15.775 8.869,16.438 L8.869,17.048 C8.869,17.712 8.331,18.250 7.668,18.250 C7.004,18.250 6.466,17.712 6.466,17.048 L6.466,16.438 ZM46.280,32.205 C46.280,33.349 45.349,34.280 44.205,34.280 L8.806,34.280 C7.662,34.280 6.731,33.349 6.731,32.205 L6.731,30.260 L46.280,30.260 L46.280,32.205 ZM1.720,3.795 C1.720,2.651 2.651,1.720 3.795,1.720 L39.194,1.720 C40.338,1.720 41.269,2.651 41.269,3.795 L41.269,25.723 C41.269,26.867 40.338,27.798 39.194,27.798 L3.795,27.798 C2.651,27.798 1.720,26.867 1.720,25.723 L1.720,3.795 ZM44.205,8.202 C45.349,8.202 46.280,9.133 46.280,10.277 L46.280,24.093 L42.989,24.093 L42.989,8.202 L44.205,8.202 ZM48.000,24.093 L48.000,24.093 L48.000,10.277 C48.000,8.181 46.301,6.482 44.205,6.482 L42.989,6.482 L42.989,3.795 C42.989,1.699 41.290,0.000 39.194,0.000 L3.795,0.000 C1.699,0.000 -0.000,1.699 -0.000,3.795 L-0.000,25.723 C-0.000,27.819 1.699,29.518 3.795,29.518 L5.011,29.518 L5.011,32.205 C5.011,34.301 6.710,36.000 8.806,36.000 L44.205,36.000 C46.301,36.000 48.000,34.301 48.000,32.205 L48.000,30.260 L48.000,30.260 L48.000,24.093 Z" class="cls-1"/>
</svg>
