<svg xmlns="http://www.w3.org/2000/svg" xmlns:xlink="http://www.w3.org/1999/xlink" preserveAspectRatio="xMidYMid" width="48" height="31.125" viewBox="0 0 48 31.125">
  <defs>
    <style>
      .cls-1 {
        fill: #fdb813;
        fill-rule: evenodd;
      }
    </style>
  </defs>
  <path d="M39.083,16.803 L36.853,14.574 L45.770,5.657 L48.000,7.886 L39.083,16.803 ZM15.375,22.746 L15.375,20.517 L24.550,20.517 L24.550,22.746 L15.375,22.746 ZM7.153,22.746 L7.153,20.517 L12.590,20.517 L12.590,22.746 L7.153,22.746 ZM7.153,7.863 L11.777,7.863 L11.777,10.092 L7.153,10.092 L7.153,7.863 ZM25.564,16.674 L7.153,16.674 L7.153,14.446 L25.564,14.446 L25.564,16.674 ZM30.474,20.517 L30.474,22.746 L27.529,22.746 L27.529,20.517 L30.474,20.517 ZM34.623,16.803 L35.737,15.689 L37.966,17.918 L36.851,19.032 L34.623,19.032 L34.623,16.803 ZM36.666,3.352 L3.344,3.352 L3.344,27.773 L36.666,27.773 L36.666,22.561 L40.011,19.218 C40.011,19.218 40.011,24.359 40.011,27.773 C40.011,31.115 36.666,31.115 36.666,31.115 C36.666,31.115 6.689,31.115 3.344,31.115 C-0.000,31.115 -0.000,27.773 -0.000,27.773 C-0.000,27.773 -0.000,6.626 -0.000,3.352 C-0.000,0.009 3.344,0.009 3.344,0.009 C3.344,0.009 33.287,0.009 36.666,0.009 C40.011,0.009 40.011,3.352 40.011,3.352 L40.011,8.073 L36.666,11.417 L36.666,3.352 Z" class="cls-1"/>
</svg>
