<svg xmlns="http://www.w3.org/2000/svg" xmlns:xlink="http://www.w3.org/1999/xlink" preserveAspectRatio="xMidYMid" width="47" height="42" viewBox="0 0 47 42">
  <defs>
    <style>
      .cls-1 {
        fill: #fdb813;
        fill-rule: evenodd;
      }
    </style>
  </defs>
  <path d="M45.978,42.000 L1.022,42.000 C0.457,42.000 0.000,41.536 0.000,40.961 C0.000,40.387 0.457,39.923 1.022,39.923 L45.978,39.923 C46.543,39.923 47.000,40.387 47.000,40.961 C47.000,41.536 46.543,42.000 45.978,42.000 ZM15.326,31.614 C15.891,31.614 16.348,32.078 16.348,32.652 C16.348,33.227 15.891,33.691 15.326,33.691 L7.152,33.691 C6.587,33.691 6.130,33.227 6.130,32.652 C6.130,32.078 6.587,31.614 7.152,31.614 L8.174,31.614 L8.174,18.112 L7.152,18.112 C6.587,18.112 6.130,17.647 6.130,17.073 C6.130,16.500 6.587,16.034 7.152,16.034 L15.326,16.034 C15.891,16.034 16.348,16.500 16.348,17.073 C16.348,17.647 15.891,18.112 15.326,18.112 L14.304,18.112 L14.304,31.614 L15.326,31.614 ZM12.261,18.112 L10.217,18.112 L10.217,31.614 L12.261,31.614 L12.261,18.112 ZM27.587,31.614 C28.152,31.614 28.609,32.078 28.609,32.652 C28.609,33.227 28.152,33.691 27.587,33.691 L19.413,33.691 C18.848,33.691 18.391,33.227 18.391,32.652 C18.391,32.078 18.848,31.614 19.413,31.614 L20.435,31.614 L20.435,18.112 L19.413,18.112 C18.848,18.112 18.391,17.647 18.391,17.073 C18.391,16.500 18.848,16.034 19.413,16.034 L27.587,16.034 C28.152,16.034 28.609,16.500 28.609,17.073 C28.609,17.647 28.152,18.112 27.587,18.112 L26.565,18.112 L26.565,31.614 L27.587,31.614 ZM24.522,18.112 L22.478,18.112 L22.478,31.614 L24.522,31.614 L24.522,18.112 ZM43.935,36.807 C43.935,37.381 43.478,37.845 42.913,37.845 L4.087,37.845 C3.522,37.845 3.065,37.381 3.065,36.807 C3.065,36.232 3.522,35.768 4.087,35.768 L42.913,35.768 C43.478,35.768 43.935,36.232 43.935,36.807 ZM39.848,31.614 C40.413,31.614 40.869,32.078 40.869,32.652 C40.869,33.227 40.413,33.691 39.848,33.691 L31.674,33.691 C31.109,33.691 30.652,33.227 30.652,32.652 C30.652,32.078 31.109,31.614 31.674,31.614 L32.696,31.614 L32.696,18.112 L31.674,18.112 C31.109,18.112 30.652,17.647 30.652,17.073 C30.652,16.500 31.109,16.034 31.674,16.034 L39.848,16.034 C40.413,16.034 40.869,16.500 40.869,17.073 C40.869,17.647 40.413,18.112 39.848,18.112 L38.826,18.112 L38.826,31.614 L39.848,31.614 ZM36.783,18.112 L34.739,18.112 L34.739,31.614 L36.783,31.614 L36.783,18.112 ZM2.043,11.880 L23.500,-0.000 L44.956,11.880 L44.956,13.957 L2.043,13.957 L2.043,11.880 ZM40.401,11.880 L23.500,2.997 L6.535,11.880 L40.401,11.880 Z" class="cls-1"/>
</svg>
