<?xml version="1.0" encoding="utf-8"?>
<!-- Generator: Adobe Illustrator 16.0.0, SVG Export Plug-In . SVG Version: 6.00 Build 0)  -->
<!DOCTYPE svg PUBLIC "-//W3C//DTD SVG 1.1//EN" "http://www.w3.org/Graphics/SVG/1.1/DTD/svg11.dtd">
<svg version="1.1" id="Слой_1" xmlns="http://www.w3.org/2000/svg" xmlns:xlink="http://www.w3.org/1999/xlink" x="0px" y="0px"
	 width="22px" height="11px" viewBox="0 0 22 11" enable-background="new 0 0 22 11" xml:space="preserve">
<path fill="#ffffff" d="M21.034,6.594c0,0-3.412,3.406-4.323,4.314c-0.122,0.123-0.319,0.123-0.442,0
	c-0.295-0.293-0.812-0.809-1.105-1.104c-0.122-0.123-0.122-0.318,0-0.441l2.773-2.77H0.312C0.14,6.594,0,6.453,0,6.281
	c0-0.416,0-1.147,0-1.562c0-0.173,0.14-0.313,0.312-0.313h17.625l-2.773-2.769c-0.122-0.122-0.122-0.319,0-0.442
	c0.294-0.294,0.811-0.81,1.105-1.104c0.123-0.122,0.32-0.122,0.442,0l4.167,4.159c0,0,0.671,0.67,1.03,1.028
	c0.122,0.123,0.122,0.321,0,0.444L21.034,6.594L21.034,6.594L21.034,6.594z"/>
</svg>
