<?xml version="1.0" encoding="utf-8"?>
<!-- Generator: Adobe Illustrator 19.2.1, SVG Export Plug-In . SVG Version: 6.00 Build 0)  -->
<svg version="1.1" id="Layer_1" xmlns="http://www.w3.org/2000/svg" xmlns:xlink="http://www.w3.org/1999/xlink" x="0px" y="0px"
	 viewBox="116.3 26.8 958 944.3" style="enable-background:new 116.3 26.8 958 944.3;" xml:space="preserve">
<style type="text/css">
	.st0{fill:#FDB813;stroke:#FDB813;stroke-width:6;stroke-miterlimit:10;}
</style>
<g transform="translate(0,-1020.3622)">
	<g transform="translate(291.96114,-209.3368)">
		<g transform="translate(-140.84578,0.16220482)">
			<g transform="translate(-56.614288,0.50392412)">
				<path class="st0" d="M500.8,1258.8c-8.2,0.1-14.7,6.9-14.6,15.1v59.4c0,0.5,0,1,0,1.5c-66.7,7.5-119.1,63.7-119.1,132.4
					c0,28.2,8.9,54.3,23.8,75.9L269.2,1869H172v-0.1c-7-33.8-37-59.5-72.8-59.5c-40.9,0-74.4,33.5-74.4,74.4
					c0,40.9,33.5,74.4,74.4,74.4c35.8,0,65.9-25.7,72.8-59.5h86.1l-9.2,24.5c-21.2,57.2-21.9,99.2-11.9,130.6
					c8.4,26.4,24.1,44.1,38,57.2l-25.5,65c-3.4,7.5-0.1,16.3,7.4,19.7c7.5,3.4,16.3,0.1,19.7-7.4c0.2-0.5,0.4-0.9,0.5-1.4l29.2-74.4
					c0,0,0,0,0.1-0.1l82.3-213.7h97.3v59.5h29.8v-59.5h98.5l81,213.6c0.3,0.9,0.8,1.8,1.3,2.7l28.2,71.9c3,7.7,11.6,11.4,19.3,8.4
					c7.7-3,11.4-11.6,8.4-19.3L727,2111c13.9-13,29.4-30.8,37.8-57.1c10-31.4,9.4-73.3-11.8-130.4l-9-24.6h85.5v0.1
					c7,33.8,37.1,59.5,72.9,59.5c40.9,0,74.4-33.5,74.4-74.4c0-40.9-33.5-74.4-74.4-74.4c-35.8,0-65.9,25.7-72.9,59.5h-96.4
					l-120.4-328.4c13.9-21.1,22.2-46.3,22.2-73.4c0-68.7-52.4-124.9-119.2-132.4c0.1-0.5,0.1-1,0.1-1.5v-59.4
					c0.1-8.2-6.5-15-14.7-15.1C501,1258.8,500.9,1258.8,500.8,1258.8z M501,1363c57.7,0,104.2,46.5,104.2,104.2
					c0,34.7-17,65.2-43,84.1c-1.9,1.4-3.9,2.7-5.8,3.9c-3.9,2.5-8,4.7-12.2,6.6c-2.1,0.9-4.2,1.8-6.5,2.6c-3.4,1.3-6.8,2.3-10.3,3.2
					c-2.5,0.7-5.6,1.3-8.4,1.9c-5.9,1-11.8,1.8-18,1.8c-14.1,0-27.5-2.8-39.8-7.8c-0.8-0.4-1.6-0.8-2.4-1.2
					c-5.5-2.4-10.8-5.2-15.7-8.5c-0.5-0.3-0.8-0.6-1.3-0.9c-27.2-18.8-45-50.1-45-85.8C396.8,1409.5,443.3,1363,501,1363z
					 M590.5,1566.1l134.6,367.5c0,0,0,0,0.1,0c19.7,53,19,87.3,11.4,111.1c-4.7,14.8-14.5,22.2-23,31.6l-181.7-479.2
					C554.1,1591.9,574.1,1581,590.5,1566.1z M413.5,1567.7c4.5,3.9,9,7.9,14,11.2c1.8,1.4,3.2,2.9,5.5,4.2c3.7,2.1,7.7,3.8,11.8,5.2
					c8.9,4.2,18.2,7.6,28,9.7l-184.2,478.5c-8.5-9.4-18.3-16.9-23-31.7c-7.6-23.8-8.3-58.1,11.4-111.1L413.5,1567.7z M502.5,1603.5
					L603.1,1869h-87.3v-59.5h-29.8v59.5h-85.9L502.5,1603.5z M99.2,1839.3c24.8,0,44.6,19.8,44.6,44.6c0,24.8-19.8,44.6-44.6,44.6
					s-44.6-19.8-44.6-44.6C54.6,1859.1,74.4,1839.3,99.2,1839.3z M902.4,1839.3c24.8,0,44.6,19.8,44.6,44.6
					c0,24.8-19.8,44.6-44.6,44.6c-24.8,0-44.6-19.8-44.6-44.6C857.8,1859.1,877.6,1839.3,902.4,1839.3z"/>
			</g>
		</g>
	</g>
</g>
</svg>
