<svg xmlns="http://www.w3.org/2000/svg" xmlns:xlink="http://www.w3.org/1999/xlink" preserveAspectRatio="xMidYMid" width="46" height="40.97" viewBox="0 0 46 40.97">
  <defs>
    <style>
      .cls-1 {
        fill: #fdb813;
        fill-rule: evenodd;
      }
    </style>
  </defs>
  <path d="M44.575,28.884 L44.575,38.256 C44.575,39.749 43.416,40.964 41.990,40.964 L8.054,40.964 C8.042,40.965 7.956,40.970 7.811,40.970 C6.997,40.970 4.314,40.813 2.307,38.926 C0.798,37.505 0.032,35.469 0.032,32.877 L0.032,10.300 C-0.023,9.808 -0.200,7.349 1.505,5.368 C2.849,3.805 4.970,2.984 7.793,2.906 C7.906,2.162 8.018,1.418 8.131,0.674 C8.215,0.122 8.861,-0.106 9.333,-0.010 C14.098,0.957 18.863,1.924 23.628,2.890 L36.554,2.890 C37.979,2.890 39.138,4.105 39.138,5.598 L39.138,6.037 C39.533,6.117 39.928,6.197 40.323,6.277 C41.557,6.528 41.034,8.414 39.803,8.164 C29.829,6.141 19.854,4.117 9.879,2.094 C9.625,3.771 9.371,5.449 9.117,7.126 C8.928,8.371 7.045,7.841 7.232,6.606 C7.318,6.036 7.405,5.465 7.491,4.895 C6.796,4.942 6.148,5.030 5.575,5.181 C5.204,5.832 4.889,6.619 5.168,7.152 C5.533,7.848 6.902,8.215 8.099,8.270 C9.381,8.329 11.024,8.370 12.884,8.399 C12.498,8.217 12.206,7.831 12.326,7.297 C12.488,6.577 12.650,5.857 12.813,5.136 C12.935,4.596 13.514,4.343 14.015,4.453 C17.130,5.136 20.244,5.820 23.359,6.503 C24.590,6.772 24.068,8.660 22.839,8.390 C20.057,7.780 17.275,7.169 14.494,6.559 C14.399,6.979 14.305,7.398 14.210,7.817 C14.144,8.113 13.981,8.303 13.781,8.411 C24.598,8.546 41.767,8.273 41.974,8.269 C43.416,8.269 44.575,9.483 44.575,10.976 L44.575,20.521 C45.833,20.821 45.999,21.831 45.999,22.311 L45.999,27.095 C46.000,27.574 45.834,28.585 44.575,28.884 ZM37.183,5.640 L37.183,5.598 C37.183,5.184 36.900,4.847 36.554,4.847 L33.276,4.847 C34.578,5.112 35.881,5.376 37.183,5.640 ZM44.197,22.311 C44.197,22.298 44.197,22.285 44.196,22.274 C44.131,22.256 44.007,22.234 43.796,22.234 L35.751,22.234 C35.538,22.234 35.415,22.256 35.349,22.274 C35.349,22.285 35.349,22.298 35.349,22.311 L35.349,27.095 C35.349,27.108 35.349,27.120 35.349,27.131 C35.415,27.148 35.539,27.171 35.751,27.171 L43.796,27.171 C44.007,27.171 44.131,27.148 44.196,27.131 C44.197,27.121 44.197,27.108 44.197,27.095 L44.197,22.311 ZM41.991,10.227 C41.755,10.231 16.758,10.630 8.009,10.226 C6.950,10.177 4.383,9.868 3.437,8.061 C3.190,7.590 3.116,7.063 3.143,6.507 C3.101,6.551 3.041,6.582 3.000,6.629 C1.717,8.104 1.974,10.081 1.977,10.100 L1.987,10.240 L1.987,32.877 C1.987,34.901 2.541,36.452 3.633,37.487 C5.371,39.133 7.971,39.009 7.996,39.009 L41.990,39.007 C42.338,39.007 42.619,38.671 42.619,38.256 L42.619,28.975 L35.751,28.975 C33.760,28.975 33.546,27.660 33.546,27.095 L33.546,22.311 C33.546,21.745 33.760,20.429 35.751,20.429 L42.620,20.429 L42.620,10.977 C42.620,10.563 42.339,10.227 41.991,10.227 Z" class="cls-1"/>
</svg>
