<svg xmlns="http://www.w3.org/2000/svg" xmlns:xlink="http://www.w3.org/1999/xlink" preserveAspectRatio="xMidYMid" width="13.719" height="13.72" viewBox="0 0 13.719 13.72">
  <defs>
    <style>
      .cls-1 {
        fill: #191919;
        fill-rule: evenodd;
      }
    </style>
  </defs>
  <path d="M13.340,13.369 C12.862,13.810 12.096,13.810 11.633,13.369 L9.463,11.298 C8.537,11.801 7.468,12.090 6.335,12.090 C2.840,12.090 -0.000,9.380 -0.000,6.045 C-0.000,2.710 2.840,-0.000 6.335,-0.000 C9.814,-0.000 12.654,2.710 12.670,6.045 C12.670,7.461 12.160,8.755 11.298,9.791 L13.340,11.740 C13.819,12.196 13.819,12.912 13.340,13.369 ZM6.335,1.675 C3.798,1.675 1.755,3.624 1.755,6.045 C1.755,8.451 3.798,10.415 6.335,10.415 C8.856,10.415 10.915,8.451 10.915,6.045 C10.915,3.639 8.856,1.675 6.335,1.675 ZM7.213,8.953 L5.457,8.953 L5.457,6.882 L3.287,6.882 L3.287,5.207 L5.457,5.207 L5.457,3.136 L7.213,3.136 L7.213,5.207 L9.367,5.207 L9.367,6.882 L7.213,6.882 L7.213,8.953 Z" class="cls-1"/>
</svg>
